<svg width="72" height="72" viewBox="0 0 72 72" fill="none" xmlns="http://www.w3.org/2000/svg">
<path d="M0 4.07845C0 1.82598 1.82598 0 4.07845 0H67.7022C69.9547 0 71.7807 1.82598 71.7807 4.07845V67.7022C71.7807 69.9547 69.9547 71.7807 67.7022 71.7807H4.07845C1.82598 71.7807 0 69.9547 0 67.7022V4.07845Z" fill="#2081F9"/>
<path fill-rule="evenodd" clip-rule="evenodd" d="M35.4234 15.9512L54.5002 27.8409L35.4231 40.1881L22.9062 31.8893V43.3146L35.4517 51.9405L48.3262 43.2991V39.0497H52.6225V45.6141L35.4227 57.1586L18.6099 45.5986V26.6859L35.4234 15.9512ZM24.7156 27.9097L35.4513 35.0276L46.4485 27.9099L35.4509 21.0556L24.7156 27.9097Z" fill="white"/>
</svg>
