<svg width="97" height="96" viewBox="0 0 97 96" fill="none" xmlns="http://www.w3.org/2000/svg">
<path d="M30.5753 0.210274C28.3119 0.846275 25.8988 2.75428 24.8138 4.81194C23.6354 7.01923 23.6728 6.17747 23.6728 27.2029V46.3204L15.7789 46.3765C8.14685 46.4514 7.82885 46.4701 6.76261 46.8629C3.80707 47.9665 1.6746 50.2487 0.776712 53.2416C0.514829 54.1208 0.477417 55.5799 0.477417 63.8666C0.477417 73.2196 0.496123 73.4814 0.851536 73.8369C1.30048 74.2858 2.29189 74.3419 2.83437 73.9491C3.17107 73.6872 3.18978 73.3131 3.28331 64.1659C3.37684 54.8316 3.39554 54.6446 3.80707 53.597C4.40566 52.1006 5.65896 50.7911 7.17414 50.0429L8.42744 49.4256H25.1693H41.9111L43.0147 49.9681C44.4364 50.6602 45.54 51.7638 46.2322 53.1855L46.7746 54.2891V71.031V87.7728L46.1573 89.0261C45.4091 90.5413 44.0997 91.7946 42.6032 92.3932L41.537 92.8234L26.011 92.8795C15.7041 92.9169 10.0736 92.8608 9.21309 92.7299C6.07049 92.2435 3.91931 90.111 3.47037 86.9871C3.37684 86.295 3.28331 83.9007 3.28331 81.6746C3.28331 77.8399 3.2646 77.6155 2.90919 77.2975C2.40413 76.8485 1.3566 76.8485 0.851536 77.2975C0.496123 77.6155 0.477417 77.8399 0.477417 82.8157C0.477417 86.9871 0.533535 88.1843 0.776712 89.0074C1.65589 91.9816 4.21861 94.5443 7.19285 95.4235C8.09074 95.6854 10.2045 95.7228 25.0757 95.7228C40.0405 95.7228 42.042 95.6854 42.9586 95.4235C44.6421 94.9185 45.7832 94.2263 47.0926 92.9169L48.3646 91.6449L49.6366 92.9169C50.946 94.2263 52.0871 94.9185 53.7706 95.4235C54.6872 95.6854 56.6888 95.7228 71.6535 95.7228C86.5247 95.7228 88.6385 95.6854 89.5364 95.4235C92.5107 94.5443 95.0734 91.9816 95.9525 89.0074C96.2144 88.1095 96.2518 85.9957 96.2518 71.1245C96.2518 56.1597 96.2144 54.1582 95.9525 53.2416C95.0547 50.2487 92.9222 47.9665 89.9666 46.8629C88.9004 46.4701 88.5824 46.4514 80.9691 46.3765L73.0565 46.3204V34.5731V22.8258L72.6262 22.4329C72.0838 21.9279 71.1859 21.9092 70.606 22.3768L70.1571 22.7322L70.1009 34.5357L70.0635 46.3391H62.7121C54.5937 46.3391 53.9016 46.4139 51.8813 47.4989C50.759 48.0975 49.2625 49.3882 48.6826 50.2674L48.3646 50.7163L48.0466 50.2674C47.4667 49.3882 45.9703 48.0975 44.8479 47.4989C42.8277 46.4139 42.1355 46.3391 33.9985 46.3391H26.6657L26.7031 27.0159L26.7593 7.71135L27.283 6.66382C27.9564 5.27958 29.4716 3.87663 30.8746 3.29675L31.9969 2.84781H48.3646H64.7323L65.7986 3.27805C67.2202 3.85793 68.7915 5.29829 69.4462 6.64511L69.97 7.71135L70.0635 13.0425C70.1196 15.9794 70.2319 18.5047 70.3067 18.673C70.4751 19.0285 71.2233 19.4026 71.7658 19.4026C71.9715 19.4026 72.3456 19.1968 72.5888 18.9349L73.0565 18.486V13.2857C73.0565 9.20782 73.0004 7.82359 72.7759 6.96311C72.0651 4.28816 70.2693 2.13699 67.6505 0.827568L66.0792 0.0419159L48.7575 0.00450134C35.1769 -0.0141983 31.2487 0.0232086 30.5753 0.210274ZM89.5551 50.0429C91.0703 50.7911 92.3236 52.1006 92.9222 53.597L93.3524 54.6633L93.4085 70.0021C93.4459 79.8041 93.3898 85.8648 93.2776 86.7814C92.8287 90.0736 90.7523 92.2248 87.5162 92.7299C86.6557 92.8608 81.0252 92.9169 70.7182 92.8795L55.1923 92.8234L54.1261 92.3932C52.6296 91.7946 51.3202 90.5413 50.5719 89.0261L49.9546 87.7728L49.8985 71.5921C49.8611 60.5556 49.9172 55.1122 50.0482 54.4388C50.4971 52.3063 52.5361 50.1738 54.6872 49.594C55.3794 49.4069 59.1205 49.3695 71.9341 49.3882L88.3018 49.4256L89.5551 50.0429Z" fill="white"/>
<path d="M56.4081 55.8789C56.0339 56.253 56.0339 56.4962 56.0339 71.1055V85.9767L56.5203 86.3509C57.0066 86.7437 57.1376 86.7437 71.485 86.7437C81.6798 86.7437 86.0757 86.6876 86.3937 86.5379C86.6556 86.4257 86.9549 86.1264 87.0671 85.8645C87.2167 85.5465 87.2729 81.1506 87.2729 70.9559C87.2729 56.6084 87.2729 56.4775 86.88 55.9911L86.5059 55.5048H71.6347C57.0254 55.5048 56.7822 55.5048 56.4081 55.8789ZM84.2799 71.1242V83.7507H71.6534H59.0269V71.1242V58.4977H71.6534H84.2799V71.1242Z" fill="white"/>
<path d="M70.9045 63.2304C68.5288 63.8476 66.6395 65.3815 65.5733 67.5514C64.9934 68.7112 64.9186 69.0479 64.8625 70.694C64.7502 73.238 65.3301 74.8467 66.9575 76.6051C69.5951 79.4671 74.2716 79.9348 77.2458 77.6713C78.4617 76.736 78.761 75.7446 78.0876 74.8842C77.5264 74.1733 76.4602 74.2107 75.6371 74.9777C74.7766 75.782 73.991 76.0813 72.7377 76.0813C67.5935 76.0626 65.9287 69.1414 70.4743 66.6348C71.8585 65.8492 73.6543 65.8492 75.0946 66.5787C76.3105 67.2147 76.9839 67.2334 77.5077 66.6722C78.125 66.0175 78.0689 65.0074 77.3581 64.4275C76.0299 63.2865 72.906 62.7253 70.9045 63.2304Z" fill="white"/>
<path d="M33.2692 9.37585L32.7455 9.82479V24.6399V39.455L33.1944 39.8104C33.6059 40.1471 34.1297 40.1658 48.3836 40.1658C62.7498 40.1658 63.1613 40.1471 63.498 39.8104C63.7038 39.6047 63.9283 39.1557 63.9844 38.819C64.0405 38.4823 64.0779 31.823 64.0405 24.0226L63.9844 9.82479L63.4606 9.37585L62.9369 8.92691H48.3649H33.793L33.2692 9.37585ZM61.085 24.5464V37.1729H48.3649H35.6449V24.5464V11.9199H48.3649H61.085V24.5464Z" fill="white"/>
<path d="M47.1877 17.0084C46.9258 17.2703 45.7473 20.1323 44.1947 24.2289C41.4636 31.4494 41.3701 31.7861 42.2493 32.4034C42.7544 32.7588 43.5026 32.7588 44.0077 32.4034C44.2321 32.2538 44.6437 31.5429 44.9242 30.8134L45.4293 29.504H48.3661H51.303L51.808 30.8134C52.0886 31.5429 52.5001 32.2538 52.7246 32.4034C53.2297 32.7588 53.9779 32.7588 54.483 32.4034C55.3622 31.7861 55.2873 31.4494 52.575 24.2289C51.172 20.4877 49.8439 17.2516 49.6194 17.0084C49.3388 16.7091 49.0208 16.5969 48.4223 16.5969C47.8237 16.5969 47.487 16.7091 47.1877 17.0084ZM49.3388 24.2663L50.1993 26.5111H48.441C47.4683 26.5111 46.6826 26.4549 46.6826 26.3614C46.6826 26.0995 48.2726 22.0216 48.3848 22.0216C48.441 22.0216 48.8712 23.0317 49.3388 24.2663Z" fill="white"/>
<path d="M9.84891 55.9911C9.45609 56.4775 9.45609 56.6084 9.45609 70.9559C9.45609 81.1506 9.5122 85.5465 9.66185 85.8645C9.77409 86.1264 10.0734 86.4257 10.3353 86.5379C10.6533 86.6876 15.0492 86.7437 25.2439 86.7437C39.5914 86.7437 39.7223 86.7437 40.2087 86.3509L40.695 85.9767V71.1055C40.695 56.4962 40.695 56.253 40.3209 55.8789C39.9468 55.5048 39.7036 55.5048 25.0943 55.5048H10.223L9.84891 55.9911ZM37.7021 71.1242V83.7507H25.0755H12.449V71.1242V58.4977H25.0755H37.7021V71.1242Z" fill="white"/>
<path d="M20.3431 63.1182C20.2121 63.1744 19.9877 63.4549 19.838 63.7355C19.6136 64.1845 19.5574 65.4565 19.5574 71.1805C19.5574 77.9333 19.5574 78.1017 19.9503 78.588L20.3431 79.0931L23.7476 79.037C26.5535 78.9996 27.2456 78.9248 27.8068 78.6442C28.7982 78.1391 29.6586 77.2412 30.1824 76.1189C30.9868 74.3605 30.5939 72.0597 29.2658 70.638C28.7608 70.0956 28.7421 70.0394 29.0039 69.5157C29.4342 68.6926 29.5464 67.4393 29.2845 66.3357C28.9852 65.0824 27.5636 63.5672 26.3664 63.2118C25.6182 62.9873 20.8481 62.9125 20.3431 63.1182ZM25.9549 66.5414C26.4225 67.0278 26.4973 67.2148 26.4038 67.7199C26.2167 68.7113 25.7117 68.9732 24.0282 68.9732H22.5504V67.4767V65.9802H23.972C25.3002 65.9802 25.4124 66.0177 25.9549 66.5414ZM26.5909 72.3403C27.1708 72.6957 27.601 73.5187 27.601 74.2109C27.601 74.6411 27.4139 74.9965 26.965 75.4455L26.329 76.0815H24.4397H22.5504V74.0051V71.91L24.3836 72.0036C25.4124 72.0597 26.3664 72.1906 26.5909 72.3403Z" fill="white"/>
</svg>
