<svg width="310" height="92" viewBox="0 0 310 92" fill="none" xmlns="http://www.w3.org/2000/svg">
<path d="M298.383 1.8362C303.708 1.8362 308.023 6.15128 308.023 11.4763V80.3339C308.023 85.6589 303.708 89.974 298.383 89.974H11.4763C6.15128 89.974 1.8362 85.6589 1.8362 80.3339V11.4763C1.8362 6.15128 6.15128 1.8362 11.4763 1.8362H298.383ZM298.383 0H11.4763C5.16432 0 0 5.16432 0 11.4763V80.3339C0 86.6458 5.16432 91.8102 11.4763 91.8102H298.383C304.695 91.8102 309.859 86.6458 309.859 80.3339V11.4763C309.859 5.16432 304.695 0 298.383 0Z" fill="#2081F9"/>
<path d="M74.9636 44.2302C74.9883 42.3144 75.4971 40.436 76.4428 38.7698C77.3885 37.1035 78.7404 35.7036 80.3725 34.7001C79.3357 33.2193 77.9678 32.0007 76.3776 31.141C74.7874 30.2813 73.0186 29.8042 71.2118 29.7477C67.3575 29.3431 63.6209 32.054 61.6569 32.054C59.6548 32.054 56.6308 29.7879 53.3744 29.8549C51.2681 29.9229 49.2154 30.5354 47.4162 31.6327C45.617 32.7299 44.1327 34.2746 43.1079 36.116C38.6689 43.8015 41.98 55.0966 46.2322 61.3089C48.3597 64.3509 50.8461 67.7489 54.0995 67.6284C57.2832 67.4964 58.4722 65.5983 62.3152 65.5983C66.1224 65.5983 67.238 67.6284 70.5574 67.5518C73.9736 67.4964 76.126 64.4963 78.1788 61.4255C79.7074 59.2579 80.8837 56.8623 81.664 54.3274C79.6793 53.4879 77.9856 52.0828 76.794 50.2873C75.6025 48.4917 74.9659 46.3851 74.9636 44.2302Z" fill="#2081F9"/>
<path d="M68.6938 25.662C70.5565 23.426 71.4741 20.5519 71.2519 17.6502C68.4062 17.9491 65.7775 19.3091 63.8897 21.4594C62.9667 22.5099 62.2598 23.7319 61.8093 25.0558C61.3589 26.3796 61.1738 27.7792 61.2646 29.1746C62.688 29.1893 64.0961 28.8808 65.383 28.2723C66.6699 27.6639 67.8019 26.7714 68.6938 25.662Z" fill="#2081F9"/>
<path d="M115.207 59.9273H104.343L101.734 67.6312H97.1321L107.423 39.1288H112.204L122.494 67.6312H117.814L115.207 59.9273ZM105.468 56.3724H114.08L109.835 43.8695H109.716L105.468 56.3724Z" fill="#2081F9"/>
<path d="M144.718 57.2421C144.718 63.6997 141.262 67.8486 136.046 67.8486C134.725 67.9178 133.411 67.6134 132.254 66.9704C131.098 66.3274 130.146 65.3718 129.508 64.213H129.409V74.5058H125.144V46.8507H129.272V50.307H129.351C130.019 49.1537 130.987 48.203 132.152 47.5561C133.317 46.9092 134.636 46.5903 135.968 46.6332C141.242 46.6332 144.718 50.8023 144.718 57.2421ZM140.334 57.2421C140.334 53.0349 138.16 50.2689 134.842 50.2689C131.583 50.2689 129.391 53.0931 129.391 57.2421C129.391 61.4291 131.583 64.2332 134.842 64.2332C138.16 64.2332 140.334 61.4874 140.334 57.2421Z" fill="#2081F9"/>
<path d="M167.59 57.2421C167.59 63.6997 164.134 67.8486 158.918 67.8486C157.597 67.9178 156.283 67.6134 155.126 66.9704C153.97 66.3274 153.018 65.3718 152.38 64.213H152.281V74.5058H148.015V46.8507H152.144V50.307H152.223C152.89 49.1537 153.858 48.203 155.023 47.5561C156.189 46.9092 157.507 46.5903 158.839 46.6332C164.114 46.6332 167.59 50.8023 167.59 57.2421ZM163.206 57.2421C163.206 53.0349 161.032 50.2689 157.714 50.2689C154.455 50.2689 152.263 53.0931 152.263 57.2421C152.263 61.4291 154.455 64.2332 157.714 64.2332C161.032 64.2332 163.206 61.4874 163.206 57.2421Z" fill="#2081F9"/>
<path d="M182.706 59.6897C183.023 62.5162 185.768 64.372 189.521 64.372C193.116 64.372 195.702 62.5161 195.702 59.9676C195.702 57.7552 194.142 56.4306 190.448 55.5228L186.755 54.6329C181.521 53.3687 179.091 50.921 179.091 46.9492C179.091 42.0314 183.377 38.6535 189.462 38.6535C195.485 38.6535 199.614 42.0314 199.753 46.9492H195.447C195.189 44.1047 192.838 42.3878 189.402 42.3878C185.966 42.3878 183.614 44.1249 183.614 46.6533C183.614 48.6684 185.116 49.8541 188.79 50.7618L191.93 51.5329C197.778 52.9159 200.208 55.265 200.208 59.434C200.208 64.7664 195.96 68.1062 189.204 68.1062C182.883 68.1062 178.616 64.8449 178.34 59.6895L182.706 59.6897Z" fill="#2081F9"/>
<path d="M209.413 41.9329V46.8507H213.365V50.2285H209.413V61.6846C209.413 63.4643 210.205 64.2937 211.942 64.2937C212.411 64.2855 212.879 64.2526 213.345 64.195V67.5527C212.564 67.6986 211.77 67.7647 210.976 67.7499C206.769 67.7499 205.128 66.1697 205.128 62.1396V50.2285H202.106V46.8507H205.128V41.9329H209.413Z" fill="#2081F9"/>
<path d="M215.654 57.2421C215.654 50.7037 219.505 46.5951 225.509 46.5951C231.535 46.5951 235.367 50.7036 235.367 57.2421C235.367 63.7983 231.555 67.889 225.509 67.889C219.466 67.889 215.654 63.7983 215.654 57.2421ZM231.021 57.2421C231.021 52.7569 228.966 50.1098 225.509 50.1098C222.053 50.1098 220 52.7771 220 57.2421C220 61.7452 222.053 64.3722 225.509 64.3722C228.966 64.3722 231.021 61.7452 231.021 57.2421Z" fill="#2081F9"/>
<path d="M238.884 46.8507H242.952V50.3876H243.051C243.326 49.283 243.974 48.3067 244.884 47.623C245.794 46.9393 246.912 46.5898 248.05 46.6332C248.541 46.6315 249.031 46.6849 249.511 46.7924V50.7821C248.89 50.5925 248.243 50.5055 247.594 50.5244C246.975 50.4992 246.357 50.6085 245.784 50.8447C245.21 51.0808 244.695 51.4383 244.272 51.8925C243.85 52.3467 243.531 52.8869 243.337 53.476C243.143 54.0651 243.079 54.6892 243.15 55.3054V67.6312H238.884L238.884 46.8507Z" fill="#2081F9"/>
<path d="M269.178 61.5277C268.604 65.3001 264.93 67.889 260.23 67.889C254.184 67.889 250.432 63.8386 250.432 57.3407C250.432 50.8225 254.205 46.5951 260.05 46.5951C265.8 46.5951 269.415 50.5446 269.415 56.8453V58.3067H254.738V58.5645C254.67 59.3293 254.766 60.0997 255.019 60.8247C255.272 61.5496 255.676 62.2124 256.205 62.7691C256.734 63.3258 257.375 63.7637 258.086 64.0536C258.796 64.3435 259.561 64.4788 260.328 64.4506C261.336 64.545 262.348 64.3116 263.212 63.7849C264.077 63.2583 264.749 62.4666 265.127 61.5277L269.178 61.5277ZM254.758 55.3256H265.147C265.186 54.638 265.081 53.9498 264.841 53.3044C264.601 52.6589 264.23 52.0701 263.751 51.5749C263.273 51.0796 262.697 50.6887 262.06 50.4265C261.423 50.1643 260.739 50.0367 260.05 50.0515C259.356 50.0473 258.667 50.1808 258.024 50.4441C257.382 50.7075 256.797 51.0955 256.305 51.5859C255.813 52.0762 255.423 52.6592 255.158 53.301C254.892 53.9429 254.756 54.631 254.758 55.3256Z" fill="#2081F9"/>
<path d="M104.933 17.6748C105.828 17.6106 106.725 17.7457 107.561 18.0704C108.397 18.395 109.15 18.901 109.766 19.552C110.383 20.203 110.847 20.9827 111.126 21.8349C111.404 22.687 111.49 23.5904 111.378 24.4799C111.378 28.8552 109.013 31.3702 104.933 31.3702H99.9866V17.6748H104.933ZM102.114 29.4334H104.696C105.335 29.4716 105.974 29.3668 106.568 29.1267C107.161 28.8866 107.694 28.5172 108.126 28.0453C108.559 27.5735 108.881 27.0112 109.069 26.3992C109.257 25.7872 109.306 25.1411 109.212 24.5078C109.299 23.877 109.245 23.2348 109.054 22.6273C108.863 22.0199 108.541 21.4621 108.109 20.994C107.677 20.526 107.147 20.1592 106.557 19.9199C105.967 19.6807 105.332 19.5749 104.696 19.6102H102.114V29.4334Z" fill="#2081F9"/>
<path d="M113.78 26.1979C113.716 25.5187 113.793 24.8334 114.009 24.1859C114.224 23.5385 114.572 22.9433 115.031 22.4384C115.49 21.9334 116.05 21.53 116.673 21.2539C117.297 20.9779 117.972 20.8353 118.655 20.8353C119.337 20.8353 120.012 20.9779 120.636 21.2539C121.26 21.53 121.819 21.9334 122.278 22.4384C122.737 22.9433 123.085 23.5385 123.3 24.1859C123.516 24.8334 123.594 25.5187 123.529 26.1979C123.595 26.8778 123.518 27.564 123.303 28.2125C123.088 28.8609 122.74 29.4573 122.281 29.9632C121.822 30.4691 121.262 30.8734 120.638 31.15C120.013 31.4267 119.338 31.5696 118.655 31.5696C117.971 31.5696 117.296 31.4267 116.671 31.15C116.047 30.8734 115.487 30.4691 115.028 29.9632C114.569 29.4573 114.221 28.8609 114.006 28.2125C113.791 27.564 113.714 26.8778 113.78 26.1979ZM121.431 26.1979C121.431 23.9575 120.424 22.6474 118.658 22.6474C116.885 22.6474 115.888 23.9575 115.888 26.1979C115.888 28.4562 116.885 29.7562 118.658 29.7562C120.424 29.7562 121.431 28.4472 121.431 26.1979Z" fill="#2081F9"/>
<path d="M136.486 31.37H134.371L132.234 23.758H132.073L129.946 31.37H127.85L125.001 21.0346H127.07L128.922 28.9211H129.074L131.199 21.0346H133.156L135.281 28.9211H135.442L137.284 21.0346H139.324L136.486 31.37Z" fill="#2081F9"/>
<path d="M141.72 21.0346H143.684V22.6765H143.836C144.095 22.0868 144.531 21.5925 145.084 21.2624C145.637 20.9323 146.279 20.783 146.92 20.8351C147.423 20.7973 147.928 20.8732 148.398 21.057C148.868 21.2408 149.29 21.528 149.633 21.8972C149.977 22.2663 150.233 22.7081 150.383 23.1897C150.532 23.6713 150.572 24.1804 150.498 24.6792V31.3699H148.458V25.1914C148.458 23.5305 147.736 22.7045 146.228 22.7045C145.886 22.6886 145.546 22.7467 145.229 22.8749C144.912 23.003 144.626 23.1982 144.392 23.4469C144.158 23.6957 143.98 23.9922 143.871 24.3162C143.762 24.6401 143.724 24.9838 143.76 25.3237V31.37H141.72L141.72 21.0346Z" fill="#2081F9"/>
<path d="M153.748 17H155.788V31.37H153.748V17Z" fill="#2081F9"/>
<path d="M158.623 26.1979C158.558 25.5186 158.636 24.8333 158.851 24.1858C159.067 23.5384 159.415 22.9431 159.874 22.4382C160.333 21.9333 160.893 21.5298 161.517 21.2538C162.141 20.9777 162.815 20.8351 163.498 20.8351C164.18 20.8351 164.855 20.9777 165.479 21.2538C166.103 21.5298 166.662 21.9333 167.121 22.4382C167.58 22.9431 167.929 23.5384 168.144 24.1858C168.36 24.8333 168.437 25.5186 168.372 26.1979C168.438 26.8778 168.362 27.564 168.147 28.2125C167.932 28.861 167.584 29.4573 167.125 29.9632C166.666 30.4691 166.106 30.8733 165.481 31.15C164.856 31.4266 164.181 31.5695 163.498 31.5695C162.815 31.5695 162.139 31.4266 161.514 31.15C160.89 30.8733 160.33 30.4691 159.871 29.9632C159.412 29.4573 159.064 28.861 158.849 28.2125C158.634 27.564 158.557 26.8778 158.623 26.1979ZM166.273 26.1979C166.273 23.9575 165.267 22.6474 163.501 22.6474C161.728 22.6474 160.73 23.9575 160.73 26.1979C160.73 28.4562 161.728 29.7562 163.501 29.7562C165.267 29.7562 166.273 28.4472 166.273 26.1979Z" fill="#2081F9"/>
<path d="M170.52 28.4472C170.52 26.5867 171.905 25.5142 174.364 25.3618L177.163 25.2004V24.3083C177.163 23.2167 176.442 22.6003 175.047 22.6003C173.909 22.6003 173.12 23.0184 172.893 23.7491H170.919C171.127 21.9738 172.797 20.8352 175.142 20.8352C177.733 20.8352 179.194 22.1251 179.194 24.3083V31.37H177.231V29.9176H177.069C176.742 30.4386 176.282 30.8633 175.736 31.1484C175.191 31.4335 174.58 31.5687 173.965 31.5403C173.531 31.5854 173.092 31.5392 172.677 31.4044C172.263 31.2697 171.881 31.0495 171.556 30.7581C171.231 30.4667 170.971 30.1105 170.793 29.7124C170.614 29.3144 170.521 28.8834 170.52 28.4472ZM177.163 27.564V26.6999L174.639 26.8613C173.216 26.9566 172.571 27.4407 172.571 28.3519C172.571 29.2821 173.378 29.8234 174.487 29.8234C174.812 29.8563 175.141 29.8235 175.453 29.7269C175.765 29.6303 176.055 29.4719 176.304 29.2611C176.554 29.0503 176.759 28.7914 176.906 28.4998C177.054 28.2083 177.141 27.89 177.163 27.564Z" fill="#2081F9"/>
<path d="M181.875 26.1979C181.875 22.9321 183.554 20.8632 186.165 20.8632C186.811 20.8334 187.452 20.9881 188.013 21.3092C188.575 21.6303 189.033 22.1045 189.334 22.6764H189.487V17H191.527V31.37H189.572V29.7371H189.411C189.086 30.3051 188.611 30.7734 188.039 31.0913C187.467 31.4091 186.819 31.5644 186.165 31.5403C183.536 31.5404 181.875 29.4715 181.875 26.1979ZM183.982 26.1979C183.982 28.39 185.015 29.7091 186.743 29.7091C188.463 29.7091 189.525 28.371 189.525 26.2068C189.525 24.0528 188.451 22.6956 186.743 22.6956C185.026 22.6956 183.982 24.0236 183.982 26.1979Z" fill="#2081F9"/>
<path d="M199.966 26.1979C199.901 25.5187 199.978 24.8334 200.194 24.1859C200.409 23.5385 200.758 22.9433 201.216 22.4384C201.675 21.9334 202.235 21.53 202.859 21.2539C203.483 20.9779 204.157 20.8353 204.84 20.8353C205.522 20.8353 206.197 20.9779 206.821 21.2539C207.445 21.53 208.004 21.9334 208.463 22.4384C208.922 22.9433 209.27 23.5385 209.486 24.1859C209.701 24.8334 209.779 25.5187 209.714 26.1979C209.78 26.8778 209.703 27.564 209.488 28.2125C209.274 28.8609 208.926 29.4573 208.466 29.9632C208.007 30.4691 207.448 30.8734 206.823 31.15C206.198 31.4267 205.523 31.5696 204.84 31.5696C204.157 31.5696 203.481 31.4267 202.856 31.15C202.232 30.8734 201.672 30.4691 201.213 29.9632C200.754 29.4573 200.406 28.8609 200.191 28.2125C199.976 27.564 199.9 26.8778 199.966 26.1979ZM207.616 26.1979C207.616 23.9575 206.609 22.6474 204.843 22.6474C203.07 22.6474 202.073 23.9575 202.073 26.1979C202.073 28.4562 203.07 29.7562 204.843 29.7562C206.609 29.7562 207.616 28.4472 207.616 26.1979Z" fill="#2081F9"/>
<path d="M212.451 21.0346H214.414V22.6765H214.567C214.825 22.0868 215.261 21.5925 215.814 21.2624C216.367 20.9323 217.009 20.783 217.651 20.8351C218.154 20.7973 218.659 20.8732 219.128 21.057C219.598 21.2408 220.02 21.528 220.364 21.8972C220.707 22.2663 220.963 22.7081 221.113 23.1897C221.263 23.6713 221.302 24.1804 221.228 24.6792V31.3699H219.188V25.1914C219.188 23.5305 218.467 22.7045 216.958 22.7045C216.617 22.6886 216.276 22.7467 215.959 22.8749C215.642 23.003 215.357 23.1982 215.122 23.4469C214.888 23.6957 214.71 23.9922 214.601 24.3162C214.492 24.6401 214.454 24.9838 214.49 25.3237V31.37H212.451V21.0346Z" fill="#2081F9"/>
<path d="M232.754 18.4615V21.0817H234.993V22.7998H232.754V28.1143C232.754 29.1969 233.2 29.671 234.215 29.671C234.475 29.6702 234.735 29.6544 234.993 29.6239V31.3229C234.627 31.3885 234.256 31.4233 233.883 31.4272C231.615 31.4272 230.712 30.6292 230.712 28.6365V22.7997H229.071V21.0816H230.712V18.4615H232.754Z" fill="#2081F9"/>
<path d="M237.779 17H239.801V22.6956H239.962C240.233 22.1004 240.682 21.6032 241.245 21.2719C241.809 20.9406 242.462 20.7912 243.114 20.8441C243.614 20.8169 244.114 20.9004 244.578 21.0887C245.043 21.277 245.46 21.5655 245.8 21.9335C246.14 22.3015 246.394 22.74 246.545 23.2177C246.696 23.6955 246.74 24.2006 246.673 24.6972V31.37H244.631V25.2004C244.631 23.5495 243.862 22.7135 242.421 22.7135C242.071 22.6847 241.718 22.7329 241.388 22.8547C241.058 22.9764 240.759 23.1689 240.511 23.4184C240.263 23.668 240.073 23.9687 239.953 24.2996C239.834 24.6304 239.788 24.9834 239.819 25.3337V31.37H237.779L237.779 17Z" fill="#2081F9"/>
<path d="M258.566 28.5794C258.289 29.524 257.689 30.3411 256.87 30.8877C256.051 31.4343 255.067 31.6756 254.088 31.5695C253.407 31.5875 252.73 31.457 252.105 31.1873C251.479 30.9175 250.92 30.5149 250.466 30.0073C250.012 29.4998 249.673 28.8994 249.474 28.248C249.275 27.5965 249.221 26.9096 249.314 26.2348C249.223 25.558 249.279 24.8696 249.477 24.2162C249.676 23.5628 250.012 22.9597 250.464 22.4477C250.916 21.9357 251.473 21.5267 252.096 21.2485C252.72 20.9703 253.396 20.8293 254.079 20.8352C256.955 20.8352 258.69 22.7999 258.69 26.0454V26.7571H251.392V26.8714C251.36 27.2507 251.407 27.6325 251.531 27.9923C251.656 28.352 251.854 28.6819 252.113 28.9607C252.372 29.2394 252.687 29.461 253.036 29.6111C253.386 29.7612 253.763 29.8365 254.144 29.8323C254.632 29.8909 255.126 29.803 255.564 29.5799C256.002 29.3568 256.364 29.0085 256.603 28.5793L258.566 28.5794ZM251.391 25.2486H256.612C256.638 24.9017 256.59 24.5533 256.473 24.2257C256.356 23.8981 256.172 23.5987 255.933 23.3465C255.693 23.0944 255.403 22.8951 255.082 22.7616C254.761 22.6281 254.415 22.5632 254.068 22.5712C253.715 22.5667 253.365 22.633 253.038 22.766C252.711 22.899 252.414 23.096 252.165 23.3456C251.916 23.5951 251.719 23.892 251.586 24.2189C251.453 24.5457 251.387 24.8958 251.391 25.2486Z" fill="#2081F9"/>
</svg>
