<svg width="95" height="97" viewBox="0 0 95 97" fill="none" xmlns="http://www.w3.org/2000/svg">
<path d="M78.1146 1.07698C77.8715 1.32007 77.7219 1.84364 77.6284 2.6477C77.2918 6.06961 75.5528 8.78097 70.1114 14.4094C66.4651 18.1866 65.2496 19.963 64.2773 22.9922C63.1741 26.4515 63.2489 30.6214 64.483 33.5571C65.4179 35.7823 67.5496 38.3628 69.1203 39.1668C70.0927 39.6904 69.8309 39.8587 67.1756 40.3823C65.5301 40.7189 61.9773 40.8684 59.883 40.7189C57.2839 40.5319 55.1335 39.9522 52.8335 38.849C51.2254 38.0636 50.627 37.6709 49.5425 36.5677C46.2515 33.258 46.0271 29.3873 48.9067 24.9556C50.5335 22.4873 52.8335 20.4491 56.3302 18.3923C58.2562 17.2516 59.4717 16.0362 60.257 14.4281C60.7432 13.437 60.7806 13.1939 60.7806 11.0996C60.7806 8.87446 60.7806 8.83706 60.07 7.43464C58.7611 4.77938 56.7229 3.39565 53.3571 2.85339C50.5148 2.40461 42.1377 2.40461 39.0897 2.85339C36.4719 3.24606 32.6012 4.21841 30.4882 5.00377C27.1785 6.2379 22.672 8.50048 21.6623 9.45413C20.6338 10.4265 20.9517 11.8102 22.2607 12.072C22.8029 12.1655 23.1208 12.0533 24.3549 11.3053C28.8614 8.61267 34.1532 6.70538 39.5572 5.86392C43.6149 5.22816 52.74 5.47124 54.666 6.2753C55.8254 6.74277 56.7229 7.64033 57.34 8.89316C57.8822 9.9777 57.9196 10.2021 57.8448 11.3988C57.714 13.1939 57.0782 14.2224 55.4514 15.2695C51.7864 17.6069 50.9262 18.224 49.6173 19.4394C47.0555 21.7955 45.2791 24.4694 44.4003 27.293C43.7645 29.3125 43.7645 32.2482 44.419 34.2116C45.9336 38.849 50.7766 42.3457 57.1904 43.4489C60.7058 44.0473 64.7635 43.9912 68.2415 43.2619C69.0455 43.0936 69.7374 43.0188 69.7935 43.0749C69.887 43.1684 70.6163 52.4244 70.5415 52.4618C70.5228 52.4618 70.1114 52.6114 69.6439 52.7984C65.2496 54.4252 63.2115 59.6422 65.287 63.9243C66.3155 65.9999 68.7838 67.8885 70.878 68.1877C71.626 68.2812 71.7195 68.3373 71.7195 68.786C71.7195 69.0478 71.9252 72.2454 72.187 75.8917C72.4488 79.538 72.6544 82.8851 72.6544 83.3339V84.1379L70.7659 85.3908C65.9976 88.5135 60.2196 90.7574 54.3294 91.8045C51.4124 92.3281 45.4287 92.5151 42.5304 92.1972C32.302 91.0379 22.6346 86.2883 15.6225 78.977C8.92827 72.0023 4.72099 62.9333 3.67385 53.2472C3.41206 50.9098 3.41206 46.4968 3.67385 44.1595C4.83318 33.4075 10.2372 22.8239 17.9973 16.0549C20.559 13.811 20.4842 13.9045 20.4842 13.1752C20.4842 12.4086 19.8111 11.5858 19.1753 11.5858C18.5956 11.5858 18.1282 11.885 16.4453 13.2874C10.2746 18.5044 5.28196 26.1149 2.6641 34.3051C1.13078 39.1107 0.476318 43.3928 0.476318 48.7033C0.476318 56.3325 1.89744 62.5967 5.15107 69.2722C10.2933 79.8372 19.007 87.8964 30.0581 92.2533C43.671 97.6199 59.6586 96.1053 71.9813 88.2891C72.4862 87.9525 72.9349 87.7094 72.9536 87.7468C72.9723 87.7655 73.0845 88.981 73.1967 90.4395C73.4398 93.45 73.552 93.8801 74.3935 94.759C75.4967 95.9183 76.6186 96.3484 78.7316 96.4419C80.321 96.498 80.7698 96.4606 81.6861 96.1053C83.0698 95.5817 84.3226 94.4224 84.6031 93.3939C84.7153 92.9826 85.1267 88.4761 85.5194 83.39L86.2299 74.134L87.0153 72.8624C89.4836 68.8608 91.4843 63.9056 92.6437 58.8943C93.6347 54.6309 94.0461 48.9838 93.5225 46.5529C93.0925 44.4961 91.8022 42.0278 90.3811 40.5132L89.2031 39.2603L90.1006 38.3628C92.1762 36.362 93.6347 33.6132 94.1583 30.771C94.738 27.6296 93.99 22.8987 92.2884 18.7849C90.1567 13.6427 85.5007 6.63058 81.2373 2.14282C80.0219 0.871292 79.8349 0.740395 79.1804 0.740395C78.7129 0.740395 78.3202 0.871292 78.1146 1.07698ZM82.9389 9.06145C88.3055 16.1671 91.3721 23.0483 91.3534 28.1157C91.3347 30.9954 90.2315 33.7815 88.2868 35.7823L87.1088 37.0165H79.2926H71.4764L70.5602 36.4368C67.4 34.4173 65.848 29.9108 66.7643 25.5166C67.4374 22.3564 68.4285 20.7296 72 16.9524C76.7308 11.9598 78.8625 9.13625 79.7788 6.68668L80.1901 5.56474L80.6389 6.10701C80.882 6.3875 81.9105 7.73382 82.9389 9.06145ZM85.3324 46.4033C85.0519 49.9375 84.8275 53.135 84.8275 53.509L84.8088 54.2195H79.2926C76.2634 54.2195 73.7764 54.2008 73.7577 54.1634C73.7577 54.1447 73.5146 50.9472 73.2528 47.0578L72.7479 40.0083H79.2926H85.8372L85.3324 46.4033ZM89.764 45.0009C90.6803 46.8895 90.886 48.348 90.6429 51.5082C90.3998 54.7618 89.9136 57.6227 89.1283 60.3902C88.5299 62.5219 87.0714 66.4487 86.9218 66.3178C86.8844 66.2617 87.2584 61.0447 87.7445 54.7057C88.6047 43.692 88.6608 43.2058 88.96 43.5985C89.1283 43.8416 89.5023 44.4774 89.764 45.0009ZM70.8032 56.0333C70.8032 56.2203 70.9528 58.3707 71.1211 60.8016C71.3081 63.2511 71.4203 65.2519 71.3829 65.2519C71.3642 65.2519 71.0276 65.121 70.6724 64.9715C68.7651 64.1861 67.5309 62.3349 67.5496 60.3154C67.5496 58.9878 67.8675 58.1089 68.7464 57.1179C69.3447 56.4447 70.3171 55.7155 70.6537 55.7155C70.7285 55.7155 70.7846 55.865 70.8032 56.0333ZM84.4161 57.5106C84.4909 57.5854 81.8357 91.9915 81.7048 92.4216C81.5365 92.9452 80.1901 93.4874 79.0495 93.4874C78.1146 93.4874 76.7682 93.0013 76.4877 92.5712C76.4129 92.4216 73.9634 58.5203 73.9634 57.4358C73.9634 57.2114 74.6552 57.1927 79.1617 57.3049C82.004 57.3797 84.3787 57.4732 84.4161 57.5106Z" fill="white"/>
<path d="M23.5708 19.6267C20.7286 20.2064 18.0733 22.2258 16.8392 24.7502C13.3238 31.9493 19.7936 40.0647 27.5724 38.2322C30.9569 37.4281 33.7057 34.7168 34.6032 31.3136C35.9309 26.2274 32.5837 20.8047 27.4602 19.7202C26.0765 19.421 24.7489 19.4023 23.5708 19.6267ZM27.9838 23.1234C29.1618 23.647 30.5455 24.9372 31.1439 26.0965C32.4154 28.6022 31.948 31.3697 29.8911 33.5013C28.6569 34.7729 27.1423 35.4086 25.3098 35.4086C24.0757 35.4086 23.7204 35.3151 22.6733 34.8103C20.3546 33.6509 18.9709 31.5006 18.9709 28.9949C18.9522 24.3014 23.7017 21.2161 27.9838 23.1234Z" fill="white"/>
<path d="M15.8106 42.4951C12.6131 43.5796 10.3505 45.9544 9.52772 49.0584C9.22853 50.1804 9.19114 52.6486 9.47162 53.8454C9.9578 55.9957 11.4911 58.1648 13.3984 59.4364C16.4089 61.4558 20.7658 61.4932 23.8511 59.5486C25.6837 58.3892 27.3105 56.1453 27.8901 53.9576C28.2454 52.6673 28.2267 50.2177 27.8527 48.9649C26.8991 45.7113 24.3373 43.1869 21.1398 42.3455C19.513 41.9341 17.2878 41.9902 15.8106 42.4951ZM21.5138 45.7861C22.8414 46.4406 23.9446 47.5625 24.6178 48.9462C24.9731 49.6568 25.0479 50.143 25.0479 51.508C25.0666 52.9852 24.9918 53.3218 24.543 54.238C23.9446 55.4909 22.5048 56.8933 21.2707 57.4543C20.5788 57.7721 20.0366 57.8656 18.7089 57.8656C17.2504 57.8656 16.8951 57.7908 15.9789 57.3421C14.726 56.7437 13.3236 55.3039 12.7626 54.0697C12.183 52.8169 12.183 50.199 12.7626 48.9462C13.548 47.2446 15.3992 45.6926 17.1943 45.2251C18.391 44.9072 20.2235 45.1503 21.5138 45.7861Z" fill="white"/>
<path d="M30.3942 61.6241C27.608 62.1477 24.9528 64.055 23.6252 66.5045C22.6341 68.3184 22.2601 71.1793 22.7463 73.2923C23.8495 78.0792 28.8422 81.3142 33.7039 80.3605C38.3787 79.4443 41.4266 75.7606 41.4266 71.0671C41.4266 66.8785 39.0144 63.4005 35.1437 62.0542C34.0592 61.6802 31.3852 61.4371 30.3942 61.6241ZM34.3584 65.0647C35.7608 65.5883 37.1445 66.8972 37.8177 68.3371C38.2665 69.2907 38.3413 69.7021 38.3413 71.0484C38.3413 72.376 38.2665 72.8061 37.8364 73.7037C36.2844 77.0321 32.4137 78.4158 29.1414 76.8264C27.982 76.2654 26.7105 74.9378 26.1308 73.7037C25.7007 72.8061 25.6259 72.376 25.6259 71.0484C25.6259 69.7208 25.7007 69.2907 26.1308 68.3931C27.6267 65.1956 31.0487 63.8119 34.3584 65.0647Z" fill="white"/>
<path d="M52.0295 67.4025C48.6263 68.3375 45.8776 71.2171 45.1857 74.5643C43.9516 80.4731 48.2897 85.9894 54.236 86.0641C56.723 86.1015 59.0978 85.2788 60.5937 83.8764C61.2294 83.278 61.2855 83.1471 61.192 82.5113C60.9677 81.165 59.8083 80.7723 58.5555 81.6138C57.0596 82.6235 56.3303 82.8853 54.797 82.9788C53.5816 83.0349 53.0954 82.9788 52.2352 82.6422C50.758 82.1 49.4304 80.8471 48.6824 79.3138C48.1401 78.2106 48.0653 77.8927 48.0653 76.5651C48.084 75.3496 48.1775 74.8634 48.5702 74.0033C50.2157 70.4318 54.61 69.0855 57.8823 71.1423C58.9295 71.7968 60.0701 73.1992 60.5189 74.396C60.8742 75.3122 60.8929 75.6862 60.7994 77.3691C60.6872 79.239 60.7059 79.3138 61.1546 79.7626C61.6782 80.2862 62.4636 80.3423 63.0619 79.9309C63.6603 79.5195 63.9408 78.4537 63.9408 76.6585C63.9408 72.1895 61.1359 68.5245 56.8539 67.4025C55.5262 67.066 53.2637 67.066 52.0295 67.4025Z" fill="white"/>
</svg>
