<svg width="106" height="97" viewBox="0 0 106 97" fill="none" xmlns="http://www.w3.org/2000/svg">
<path d="M76.2137 2.99185C71.5711 4.22988 66.784 5.48854 65.6079 5.79805C64.4112 6.10755 63.2763 6.54086 63.07 6.7472C62.6986 7.11861 62.5748 8.02649 62.8224 8.6455C62.9255 8.91374 64.5969 10.1311 68.3522 12.731C68.7236 12.9786 65.6904 16.8784 62.5541 20.1591C60.986 21.8098 60.8415 22.0368 60.8415 22.7796C60.8415 24.3891 62.4097 24.9874 63.6683 23.8732C65.5873 22.2225 70.0235 16.8165 71.5917 14.2373C72.8916 12.0707 72.7678 11.6787 70.3124 9.96606C69.3014 9.26452 68.5379 8.62487 68.6204 8.54234C68.7236 8.4598 72.1694 7.51065 76.3168 6.43769L83.8482 4.49812L84.6322 12.339C85.0656 16.6308 85.3751 20.2004 85.3338 20.2623C85.2719 20.3036 84.4259 19.7877 83.4148 19.1068C80.9182 17.3736 80.6087 17.3942 79.0611 19.3338C75.9867 23.1304 74.5836 24.7398 72.1901 27.1334C59.3146 40.0501 41.8585 47.9528 20.9152 50.3463C17.8408 50.6971 16.4789 50.7384 16.4789 50.4701C16.4789 50.367 18.3153 49.6654 20.5644 48.9226C35.0906 44.0324 48.2343 37.0582 57.7465 29.238C59.2321 28 59.3972 27.7936 59.3972 27.0096C59.3972 26.1842 58.8607 25.5239 58.0353 25.3589C57.3544 25.2351 57.4988 25.1319 53.6197 28.1857C44.5821 35.2631 32.0987 41.6183 18.4391 46.1164C16.6234 46.7148 14.8489 47.4163 14.4981 47.6846C12.6411 49.067 12.8061 52.1415 14.8076 53.4827C15.6123 54.0398 16.9329 54.1017 20.42 53.7509C45.263 51.2542 66.2476 40.6072 80.0103 23.5224C80.7325 22.6146 81.4134 21.8924 81.4959 21.913C81.5784 21.9337 82.6927 22.6971 83.9926 23.5844C87.0877 25.7509 87.1289 25.7715 87.9543 25.4827C89.2748 25.0493 89.2748 25.3589 88.0987 13.4738C87.521 7.53128 86.9432 2.35221 86.84 1.93953C86.6337 1.15545 85.9734 0.701508 85.1274 0.742775C84.8798 0.763409 80.8769 1.77446 76.2137 2.99185Z" fill="white"/>
<path d="M80.9594 38.8742C80.0102 39.3075 79.3293 39.9884 79.0198 40.8138C78.8547 41.2264 78.7928 49.4387 78.7928 67.2869V93.1616H76.3168H73.8407V72.7755V52.4099L73.3661 51.5846C73.0979 51.1306 72.5408 50.5735 72.0868 50.3053C71.2821 49.8514 71.1171 49.8307 64.6793 49.8307C58.2622 49.8307 58.0971 49.8307 57.2924 50.2847C56.8385 50.5529 56.2401 51.1306 55.9719 51.6052L55.4767 52.4512V72.7961V93.1616H53.0006H50.5246V78.4497V63.7585L50.05 62.9332C49.4103 61.7777 48.4818 61.2412 46.9549 61.0761C46.2534 60.9936 43.2202 60.9729 40.2077 61.0142C34.1001 61.0967 33.935 61.1174 32.8414 62.5617L32.2637 63.3046L32.2018 71.2073L32.1399 79.11L32.6145 79.5227C33.1922 80.0592 34.2239 80.0798 34.8635 79.564L35.3587 79.1719L35.4207 71.8882C35.4619 66.4615 35.5445 64.5632 35.7302 64.4394C36.019 64.2537 46.4184 64.2124 46.893 64.3982C47.1819 64.522 47.2232 65.9869 47.2232 78.8418V93.1616H41.3425H35.4619V88.6016V84.0415L34.8635 83.4431C34.1414 82.7416 33.4604 82.6797 32.697 83.278L32.1605 83.6907V88.4365V93.1616H29.6845H27.229L27.1671 83.9177L27.1052 74.6531L26.5069 73.8897C25.372 72.404 25.0006 72.3215 18.1296 72.3215C14.7456 72.3215 11.7331 72.404 11.3411 72.5279C10.5363 72.7548 9.56655 73.5802 9.13324 74.4262C8.90627 74.8801 8.84437 76.6546 8.84437 84.0828V93.1616H4.96522C1.33368 93.1616 1.04481 93.1822 0.632133 93.5743C-0.048781 94.2139 0.0131202 95.4726 0.714668 96.0297L1.27178 96.463H53.0006H104.729L105.287 96.0297C105.988 95.4726 106.05 94.2139 105.369 93.5743C104.956 93.1822 104.668 93.1616 101.036 93.1616H97.1569V78.3053C97.1569 63.7172 97.1569 63.449 96.7442 63.0363C96.3109 62.603 95.3204 62.4998 94.6808 62.83C93.8967 63.2633 93.8555 63.8823 93.8555 78.7386V93.1616H87.9748H82.0942L82.1355 67.5345L82.1974 41.8867H87.9748H93.7523L93.8555 50.3053L93.9586 58.7445L94.5364 59.2397C95.2379 59.8381 95.8982 59.8794 96.6204 59.3016L97.1569 58.8889V49.9958C97.1569 41.4328 97.1362 41.082 96.7235 40.3598C96.4966 39.9471 95.9807 39.3694 95.5681 39.1012L94.8252 38.5853L88.305 38.5441C82.3006 38.4822 81.7228 38.5234 80.9594 38.8742ZM70.5393 73.1469V93.1616H64.6587H58.7781V73.1469V53.1321H64.6587H70.5393V73.1469ZM23.8657 84.4335L23.907 93.1616H18.0264H12.1458V84.5367C12.1458 79.7909 12.2077 75.8293 12.2902 75.7674C12.3727 75.6848 14.9932 75.6435 18.1089 75.6642L23.8038 75.7261L23.8657 84.4335Z" fill="white"/>
</svg>
