<svg width="77" height="97" viewBox="0 0 77 97" fill="none" xmlns="http://www.w3.org/2000/svg">
<path d="M23.1699 4.86183C15.3164 7.36745 8.64103 9.57389 8.30445 9.76087C6.97685 10.5462 6.54678 12.6031 7.40692 14.0055C7.65 14.3794 7.91178 14.6786 8.00528 14.6786C8.09877 14.6786 8.17356 16.268 8.17356 18.3996V22.1207L7.55651 22.2516C7.23863 22.3264 6.67767 22.5881 6.3411 22.8499C5.35007 23.5979 5.18178 24.1401 5.18178 26.4775C5.18178 28.179 4.9761 29.7684 4.15336 34.574C3.06884 40.9876 3.05014 41.3803 3.85418 42.5022C4.60212 43.568 5.08829 43.6615 9.70685 43.6615C13.8579 43.6615 13.8953 43.6615 14.5872 43.194C15.3164 42.6892 15.7091 42.0721 15.9148 41.1185C15.9896 40.7632 15.6717 38.3511 14.9986 34.5179C14.1758 29.6936 13.9701 28.0668 13.9701 26.4214C13.9701 25.2807 13.8766 24.1962 13.7645 23.9718C13.3718 23.2052 12.5864 22.532 11.8759 22.3264L11.1653 22.1394V18.8671C11.1653 15.8379 11.184 15.5948 11.5019 15.6883C11.6702 15.7257 13.1848 16.0062 14.8677 16.2867L17.8969 16.8103V20.0451C17.8969 23.3922 18.009 23.9718 18.7196 24.5702C18.9814 24.7946 19.0188 25.6173 19.0188 30.9277V37.0422L19.5049 38.0145C19.9724 38.9681 21.1504 39.9218 21.8423 39.9218C22.048 39.9218 22.1975 40.3144 22.3471 41.2307C22.9455 44.7647 24.6845 47.9061 27.4145 50.4491C28.4803 51.4214 28.5551 51.5523 28.5551 52.319V53.1417L22.4593 57.1058L16.3636 61.0886L12.9791 62.0797C11.1093 62.6406 8.9776 63.3886 8.24836 63.7625C5.57445 65.1275 3.34932 67.3714 2.00301 70.1201C0.825001 72.5322 0.656713 73.3923 0.56322 77.5434L0.469727 81.2271L0.955891 81.6945C1.51685 82.2742 2.33959 82.3303 2.95665 81.8254C3.38671 81.4701 3.40541 81.3579 3.5176 77.8426C3.64849 73.8972 3.77938 73.2614 5.03219 70.9241C5.87363 69.3534 7.78089 67.4836 9.40767 66.6234C10.1369 66.2308 12.1003 65.5202 13.7645 65.0153L16.8123 64.0991L27.0405 70.1762C32.6501 73.5232 37.5304 76.3654 37.867 76.515C38.3719 76.7207 38.5588 76.7207 39.0824 76.515C39.4003 76.3654 44.2806 73.5232 49.8902 70.1762L60.0997 64.0991L62.8858 64.9218C66.6442 66.0064 68.4206 66.9039 70.0286 68.4933C71.3002 69.7835 72.179 71.2046 72.9269 73.1492C73.3009 74.1964 73.3196 74.5703 73.3944 82.1807C73.4318 86.5562 73.4131 90.3894 73.3383 90.726C73.2074 91.4552 72.4782 92.3714 71.6741 92.8015C71.2067 93.0446 70.44 93.1194 67.6913 93.1755L64.2695 93.2503V89.9032C64.2695 86.631 64.2508 86.5375 63.8394 86.1448C63.2036 85.5464 62.1752 85.5838 61.6704 86.2196C61.3151 86.6871 61.2777 86.9675 61.2777 89.9593V93.2129H38.4654H15.653V89.9593C15.653 86.9675 15.6156 86.6871 15.2603 86.2196C14.7742 85.6025 13.6149 85.5277 13.0352 86.1074C12.6799 86.4627 12.6612 86.7245 12.6612 89.8471V93.2129H9.72555C5.76144 93.1942 4.9761 92.9885 3.98507 91.6422C3.64849 91.2121 3.5737 90.7634 3.49891 88.8187C3.38671 86.2196 3.29322 85.9765 2.1526 85.7895C1.57295 85.7147 1.38596 85.7708 0.97459 86.1822L0.469727 86.6871L0.544521 89.2488C0.600617 91.5861 0.656713 91.8853 1.10548 92.7641C1.38596 93.2877 2.04041 94.1104 2.56397 94.5779C4.30295 96.1486 1.14288 96.0177 38.4654 96.0177C76.274 96.0177 72.7026 96.186 74.5724 94.3535C75.3391 93.5869 75.7317 93.0072 76.0309 92.2032C76.4423 91.0999 76.4423 90.9503 76.3675 82.4799C76.2927 72.8501 76.3114 72.9623 74.9277 70.1201C73.5253 67.2779 71.2628 65.0153 68.4767 63.669C67.6539 63.2764 65.541 62.5284 63.7646 62.0049L60.5484 61.0699L54.4527 57.1058L48.3756 53.123V52.3564C48.3756 51.6084 48.4878 51.4588 49.9276 50.0003C52.4706 47.4386 53.873 44.8582 54.5088 41.5859C54.808 40.0714 54.8641 39.9405 55.3315 39.847C56.0234 39.7161 57.164 38.6503 57.5567 37.7714C57.8745 37.0983 57.9119 36.4251 57.9119 30.9277C57.9119 25.6173 57.9493 24.7946 58.2111 24.5702C58.9217 23.9718 59.0339 23.3922 59.0339 20.0451V16.7916L63.5402 16.0249C68.4767 15.1835 69.0563 14.9778 69.6173 13.7811C70.0473 12.8835 70.0286 11.4998 69.5612 10.7145C69.3742 10.3779 68.8693 9.91046 68.458 9.70478C68.0653 9.48039 61.3338 7.27396 53.4991 4.78703C42.4669 1.29039 39.0637 0.280663 38.3532 0.299362C37.6987 0.318062 33.3045 1.62697 23.1699 4.86183ZM52.5828 7.66663C68.2523 12.6592 66.9621 12.2291 66.8686 12.3413C66.8125 12.3787 64.7743 12.7714 62.3061 13.2014L57.8184 13.9681L55.6494 13.7437C54.0226 13.5754 53.3682 13.5754 53.069 13.725C52.2649 14.1738 52.0593 15.277 52.6576 16.0062C52.9381 16.3428 53.3121 16.4737 54.4714 16.642L55.9486 16.8477L56.0047 19.5964L56.0608 22.3451H38.4654H20.8699L20.926 19.5964L20.9821 16.829L27.9941 15.9314C36.502 14.8282 39.6808 14.716 44.505 15.3892C47.609 15.8192 48.1886 15.7631 48.5439 15.0713C48.9366 14.342 48.7683 13.2949 48.1886 12.9957C47.4594 12.6031 41.7189 12.0047 38.6523 11.986C35.9784 11.9673 34.5012 12.0982 27.5267 12.977L19.4862 14.0055L15.1856 13.2762C12.8295 12.8835 10.6792 12.4909 10.4174 12.4161C9.98733 12.2852 9.96863 12.2665 10.3239 12.1543C19.6171 9.14382 38.0914 3.30984 38.3719 3.29115C38.5775 3.29115 44.9725 5.2545 52.5828 7.66663ZM10.9784 26.3653V27.5807H9.57596H8.17356V26.3653V25.1498H9.57596H10.9784V26.3653ZM25.1893 26.8327C25.1893 29.0953 24.834 29.5814 23.0203 29.7684L22.0106 29.8806V27.5994V25.3368H23.5999H25.1893V26.8327ZM48.7496 26.9823C48.7496 29.7871 49.4601 31.2643 51.2365 32.1618C52.0032 32.5358 52.4706 32.6293 53.5551 32.6293H54.9202V34.5366C54.9202 36.6682 54.7145 37.117 53.7421 37.117C52.882 37.117 51.9845 38.1267 51.8536 39.286C51.3113 43.5119 49.348 46.9525 46.2253 49.1776C41.5132 52.5434 35.4175 52.5434 30.7054 49.1776C27.5827 46.9525 25.6194 43.5119 25.0771 39.286C24.9462 38.1454 24.0487 37.117 23.2073 37.117C22.1975 37.117 22.0106 36.7056 22.0106 34.5553V32.6293H23.3756C24.4601 32.6293 24.9275 32.5358 25.6942 32.1618C27.4706 31.2643 28.1811 29.7871 28.1811 26.9823V25.3368H38.4654H48.7496V26.9823ZM54.9202 27.5994V29.8806L53.9104 29.7684C52.0967 29.5814 51.7414 29.0953 51.7414 26.8327V25.3368H53.3308H54.9202V27.5994ZM12.1377 35.565C12.7547 39.1551 12.923 40.6136 12.7734 40.7071C12.6612 40.7819 11.2027 40.8567 9.51987 40.8567C6.88336 40.8567 6.47199 40.8193 6.3598 40.5575C6.3037 40.3892 6.62158 38.0706 7.07034 35.4154L7.89308 30.5725H9.57596H11.2775L12.1377 35.565ZM35.3988 54.4319C38.3158 54.9742 42.149 54.6002 44.7107 53.497L45.4399 53.1978L45.3091 55.1986C45.1595 57.6668 44.5985 60.6586 44.2432 60.8642C43.2522 61.4813 33.6785 61.5 32.6875 60.8829C32.5566 60.8081 32.3696 60.3968 32.2761 60.0041C31.9769 58.7887 31.5469 55.4229 31.5469 54.2823V53.2165L32.6314 53.6653C33.2297 53.9083 34.4825 54.2449 35.3988 54.4319ZM28.9103 58.2838C29.49 62.2105 31.0233 66.399 32.9867 69.5217C33.2297 69.9144 33.4167 70.2697 33.3793 70.3071C33.2858 70.4005 19.9724 62.4536 20.0659 62.3601C20.2155 62.2105 28.4616 56.7879 28.5738 56.7692C28.6299 56.7505 28.7795 57.4424 28.9103 58.2838ZM52.5267 59.4805C54.8267 60.9764 56.7526 62.2479 56.8274 62.3227C56.9022 62.3975 53.9478 64.23 50.2829 66.4177C46.618 68.5868 43.5888 70.3445 43.5514 70.3071C43.514 70.2697 43.701 69.9144 43.9441 69.5217C45.9074 66.399 47.4407 62.2105 48.0204 58.2838C48.1512 57.4424 48.2821 56.7505 48.3008 56.7505C48.3382 56.7505 50.2455 57.9847 52.5267 59.4805ZM38.4654 64.3796C39.9612 64.3796 41.6628 64.3235 42.2425 64.2487L43.3083 64.1178L43.0278 64.791C42.4295 66.2308 38.7458 72.2704 38.4654 72.2704C38.1849 72.2704 34.5012 66.2308 33.9029 64.791L33.6224 64.1178L34.6882 64.2487C35.2679 64.3235 36.9695 64.3796 38.4654 64.3796Z" fill="white"/>
</svg>
