<svg width="118" height="96" viewBox="0 0 118 96" fill="none" xmlns="http://www.w3.org/2000/svg">
<path d="M5.82343 0.366951C3.80677 0.916946 1.97344 2.42944 0.873448 4.51485L0.2547 5.66068V40.9522V76.2438L0.873448 77.3896C1.67553 78.948 3.09636 80.3229 4.6776 81.1021L5.98385 81.7438L25.5088 81.8125C36.2567 81.8354 45.0566 81.9271 45.0566 81.9729C45.0566 82.0417 44.5066 83.1417 43.865 84.4479C42.6733 86.7625 42.6504 86.8083 42.6504 88.8479C42.6504 90.5437 42.7421 91.0708 43.1775 91.8729C43.9796 93.3854 44.9879 94.3937 46.3858 95.0812L47.6921 95.7229H58.8066H69.9212L71.2274 95.0812C72.6253 94.3937 73.6336 93.3854 74.4357 91.8729C74.8711 91.0708 74.9628 90.5667 74.9399 88.8479C74.9399 86.8542 74.917 86.7167 73.7711 84.3792L72.6024 81.9729L92.1044 81.8584L111.629 81.7438L112.936 81.1021C114.517 80.3229 115.938 78.948 116.74 77.3896L117.358 76.2438V40.9522V5.66068L116.74 4.51485C115.938 2.95653 114.517 1.58153 112.936 0.802368C111.652 0.160698 111.584 0.160698 106.45 0.0919495L101.248 0.000282288L100.515 0.664864C99.919 1.19195 99.7586 1.51278 99.7356 2.24611C99.7127 3.32319 100.286 4.33152 101.111 4.62944C101.431 4.76694 103.586 4.8586 105.923 4.8586C110.484 4.8586 110.873 4.95027 111.973 6.11902L112.546 6.73776L112.615 36.0481L112.661 65.3584H58.8066H4.9526L4.99843 36.0481L5.06718 6.73776L5.6401 6.11902C6.90051 4.76694 4.21927 4.8586 44.8046 4.8586H82.1815L82.9149 4.19402C83.5565 3.62111 83.6711 3.36903 83.6711 2.45236C83.6711 1.5357 83.5565 1.28362 82.9149 0.710701L82.1815 0.0461197L44.5296 0.0690384C14.9672 0.0690384 6.67135 0.137787 5.82343 0.366951ZM112.615 72.6688C112.546 74.9605 112.5 75.2355 111.973 75.8084C110.736 77.1375 114.288 77.0459 58.692 77.0459C2.98177 77.0459 6.90051 77.1375 5.6401 75.7855C5.11302 75.2355 5.06718 74.9834 4.99843 72.6688L4.90677 70.1709H58.8066H112.706L112.615 72.6688ZM68.6607 85.0667C69.5545 86.8771 70.2649 88.5729 70.2649 88.9396C70.2649 89.3292 70.0357 89.9021 69.7149 90.2688L69.1649 90.9104L58.9212 90.9792L48.7004 91.0479L48.0358 90.3604C47.0275 89.3521 47.1191 88.7104 48.9525 85.0667L50.5566 81.8584H58.8066H67.0566L68.6607 85.0667Z" fill="white"/>
<path d="M90.0641 0.825231C89.4683 1.42106 89.285 1.78773 89.285 2.45231C89.285 3.57522 90.4996 4.85855 91.5537 4.85855C92.5391 4.85855 93.5016 4.33147 93.8225 3.59814C94.6475 1.81064 93.5016 0.0460668 91.5537 0.0460668C91.0496 0.0460668 90.6141 0.275232 90.0641 0.825231Z" fill="white"/>
<path d="M32.8658 24.7041C29.2908 27.2937 26.0367 29.7457 25.6242 30.1582C23.0575 32.5416 22.8513 36.9416 25.1658 39.554C25.8762 40.379 37.2429 48.9269 38.9616 49.9353C39.5575 50.279 41.047 50.3248 41.6429 50.004C42.147 49.729 42.7658 48.6061 42.7658 47.9644C42.7658 46.8186 42.0554 46.1769 35.6158 41.479C31.9721 38.8436 28.8325 36.4145 28.6492 36.1166C28.1679 35.4061 28.3742 34.1916 29.0846 33.5728C29.3596 33.3207 32.27 31.1895 35.5471 28.8062C38.8241 26.4458 41.7345 24.2916 42.0095 24.0395C43.0408 23.0999 42.8804 21.1062 41.7116 20.327C41.4137 20.1437 40.772 19.9833 40.2679 19.9833C39.4429 19.9833 38.7325 20.4416 32.8658 24.7041Z" fill="white"/>
<path d="M63.6635 20.2813C63.3197 20.4417 62.7697 21.2896 62.1051 22.6646C61.5322 23.8334 58.6676 29.8146 55.7114 35.9563C49.8677 48.0791 49.8218 48.2166 50.9218 49.5229C51.426 50.1416 51.6552 50.2333 52.6177 50.2333C53.3281 50.2333 53.8781 50.0958 54.176 49.8208C54.451 49.6146 57.4989 43.5187 60.9822 36.2771C65.9322 25.9417 67.2843 22.9396 67.2843 22.2292C67.2843 20.4647 65.3822 19.4334 63.6635 20.2813Z" fill="white"/>
<path d="M75.8564 20.327C74.7335 21.1062 74.596 23.1228 75.6043 24.0395C75.8793 24.2916 78.7897 26.4458 82.0668 28.8062C85.3439 31.1895 88.2543 33.3207 88.5293 33.5728C89.2397 34.1916 89.4459 35.4061 88.9647 36.1166C88.7813 36.4145 85.6418 38.8436 81.998 41.479C75.5585 46.1769 74.8481 46.8186 74.8481 47.9644C74.8481 48.6061 75.4668 49.729 75.971 50.004C76.5668 50.3248 78.0564 50.279 78.6522 49.9353C80.348 48.9499 91.7376 40.379 92.4938 39.5082C94.8313 36.8728 94.5334 32.5416 91.8751 30.0437C91.3938 29.5853 88.1397 27.1333 84.6334 24.5895C78.7439 20.3499 78.171 19.9833 77.2772 19.9833C76.7501 19.9833 76.1085 20.1437 75.8564 20.327Z" fill="white"/>
</svg>
