<svg width="97" height="96" viewBox="0 0 97 96" fill="none" xmlns="http://www.w3.org/2000/svg">
<path d="M37.0454 0.205933C36.6528 0.299416 35.7741 0.635941 35.0823 0.972466C33.624 1.66421 31.4927 3.70206 30.7262 5.16033C29.6418 7.17948 29.6418 7.16078 29.6418 20.977V33.6528H19.2283C12.7408 33.6528 8.47815 33.7275 7.95467 33.8584C7.50597 33.9519 6.57118 34.3071 5.89813 34.6249C4.45855 35.3167 2.32723 37.3732 1.5607 38.8128C0.457643 40.8881 0.476338 40.4394 0.476338 58.7052C0.476338 69.5114 0.551122 75.7371 0.681993 76.2792C1.18678 78.4667 2.98158 80.9906 4.96334 82.2619C5.46812 82.5797 6.459 83.0471 7.15075 83.2902L8.42206 83.7389L8.47815 89.2354L8.51554 94.7507L9.02033 95.2368C9.39425 95.6294 9.67468 95.7229 10.3851 95.7229H11.2638L18.2561 89.7402L25.2483 83.7763L41.9811 83.7576C52.7686 83.7576 59.013 83.6828 59.5551 83.5519C62.9017 82.7854 66.0613 79.6258 66.8278 76.2792C66.9587 75.7371 67.0335 70.7827 67.0335 62.7622V50.1051H69.2396L71.427 50.1238L78.4192 56.0878L85.4115 62.0704H86.2902C87.0006 62.0704 87.2437 61.9769 87.655 61.5469L88.1598 61.0235L88.1971 55.5643L88.2532 50.0864L89.5245 49.6377C90.2163 49.3946 91.2072 48.9273 91.712 48.6094C93.6937 47.3381 95.4885 44.8142 95.9933 42.6268C96.255 41.4676 96.255 8.63776 95.9933 7.47861C95.8998 7.02991 95.5446 6.09512 95.2268 5.42207C94.535 3.98249 92.4785 1.85117 91.0389 1.08464C89.0945 0.037674 88.6645 0.000282288 79.1671 0.000282288H70.4548L69.95 0.486374C69.2583 1.19682 69.2583 2.54292 69.95 3.23466L70.4174 3.72075L78.9614 3.77684L87.5054 3.83292L88.5524 4.31902C90.6463 5.3099 91.8989 6.93643 92.2541 9.16124C92.5346 10.8252 92.5346 39.2802 92.2541 40.9441C91.7867 43.8233 89.7676 45.805 86.8697 46.1977C84.3645 46.5342 84.3458 46.5529 84.2336 51.6568L84.1402 55.7512L78.6436 51.0586L73.1657 46.3846L55.7412 46.3285L38.3354 46.2724L37.0828 45.6555C35.6432 44.945 34.6523 43.9355 33.9606 42.4585L33.4745 41.4115V25.0527V8.69384L33.9606 7.64687C34.6523 6.16991 35.6432 5.16033 37.0828 4.44989L38.3354 3.83292L46.8794 3.77684L55.4234 3.72075L55.8908 3.23466C56.5825 2.54292 56.5825 1.19682 55.8908 0.486374L55.386 0.000282288L46.5802 0.0189743C41.738 0.037674 37.4567 0.112457 37.0454 0.205933ZM29.6418 39.7663C29.6418 42.5146 30.0344 43.9355 31.231 45.749C31.7918 46.609 31.8666 46.7959 31.6797 47.1511C31.5488 47.3755 29.6605 52.2738 27.4731 58.0321C24.6126 65.5478 23.4722 68.7448 23.4722 69.287C23.4722 70.4088 24.1453 71.0444 25.3418 71.0444C26.3701 71.0444 26.9683 70.577 27.3796 69.4366C27.5292 69.0253 27.8844 68.0531 28.1835 67.2492L28.7444 65.8096H33.7549H38.7654L39.3263 67.2492C39.6254 68.0531 39.9806 69.0253 40.1302 69.4366C40.5415 70.577 41.1398 71.0444 42.168 71.0444C42.8785 71.0444 43.1589 70.9509 43.5515 70.5583C44.4302 69.6609 44.3367 69.3057 40.5602 59.3034C38.6532 54.2369 37.1202 50.0677 37.1389 50.049C37.1762 50.0303 43.0841 50.0303 50.2633 50.0677L63.2943 50.1051V61.7526C63.2943 68.9692 63.2195 73.8488 63.0886 74.5966C62.7334 76.8214 61.4808 78.448 59.3869 79.4388L58.3399 79.9249L40.9341 79.981L23.5096 80.0371L18.0317 84.7111L12.5351 89.4037L12.4417 85.3093C12.3295 80.2054 12.3108 80.1867 9.78686 79.8501C7.52466 79.5323 5.80465 78.2423 4.79507 76.111L4.30898 75.064V58.7052V42.3463L4.79507 41.2994C5.74856 39.2802 7.54336 37.878 9.52512 37.5789C10.0486 37.5041 14.7973 37.4293 20.0696 37.4106L29.6418 37.3919V39.7663ZM35.6993 57.6582C36.578 60.0139 37.3071 61.9769 37.3071 62.0143C37.3071 62.033 35.6993 62.0704 33.7362 62.0704C30.4084 62.0704 30.1653 62.0517 30.2962 61.7339C30.3523 61.5656 31.0814 59.696 31.8853 57.5834C33.9606 52.1242 33.7736 52.5542 33.9419 53.0029C34.0166 53.2086 34.8206 55.3025 35.6993 57.6582Z" fill="white"/>
<path d="M61.5367 0.48599C61.1441 0.87864 61.0506 1.1591 61.0506 1.86962C61.0506 2.58013 61.1441 2.86059 61.5367 3.25324C61.9294 3.64589 62.2099 3.73938 62.9204 3.73938C63.6309 3.73938 63.9113 3.64589 64.304 3.25324C64.6966 2.86059 64.7901 2.58013 64.7901 1.86962C64.7901 1.1591 64.6966 0.87864 64.304 0.48599C63.9113 0.093339 63.6309 -0.00014925 62.9204 -0.00014925C62.2099 -0.00014925 61.9294 0.093339 61.5367 0.48599Z" fill="white"/>
<path d="M62.0592 9.70312C61.1805 10.077 61.0496 10.5444 61.0496 13.4984V16.2467L55.2352 16.3027L49.4208 16.3588L48.9721 16.8823C48.3552 17.6114 48.3552 18.8454 48.9721 19.5745L49.4208 20.098L52.8982 20.1541C54.8052 20.1915 56.3757 20.2663 56.3757 20.341C56.3757 20.4158 56.4691 21.2197 56.5626 22.1545C56.9739 25.7628 58.0022 28.5672 60.0587 31.7268C60.3018 32.1007 60.2644 32.1755 59.1426 33.0729C57.1235 34.7181 53.8891 36.1764 51.5148 36.5316C50.2621 36.7373 49.7573 36.9803 49.4021 37.5599C48.7852 38.6069 49.1778 39.953 50.1873 40.383C50.9165 40.6821 52.3374 40.5138 54.4874 39.8969C57.2357 39.0929 59.5913 37.8403 61.8535 36.0268L62.9192 35.1481L64.0036 36.0268C66.2471 37.8403 68.6027 39.0929 71.351 39.8969C74.4732 40.7943 75.8006 40.7382 76.4363 39.6538C77.0345 38.6256 76.6419 37.2234 75.6511 36.8494C75.3893 36.756 74.791 36.6064 74.3237 36.5316C73.0149 36.3447 71.1828 35.7277 69.7432 35.0173C68.5093 34.4003 66.191 32.8112 65.761 32.2877C65.6114 32.1194 65.761 31.7268 66.3405 30.8481C67.7427 28.6233 68.9019 25.3702 69.1636 22.8837C69.2384 22.2854 69.3319 21.4254 69.388 20.9954L69.4814 20.2102L72.9402 20.1541L76.4176 20.098L76.8663 19.5745C77.4832 18.8454 77.4832 17.6114 76.8663 16.8823L76.4176 16.3588L70.6032 16.3027L64.7888 16.2467V13.461C64.7888 10.8436 64.7701 10.6566 64.3588 10.1892C63.9101 9.64703 62.7509 9.40398 62.0592 9.70312ZM65.3871 21.2571C65.3497 21.8554 65.1627 23.0519 64.957 23.9119C64.5644 25.5946 63.2557 28.6046 62.9192 28.6046C62.5827 28.6046 61.274 25.5946 60.8814 23.9119C60.6757 23.0519 60.4887 21.8554 60.4514 21.2571L60.3579 20.1915H62.9192H65.4805L65.3871 21.2571Z" fill="white"/>
</svg>
