<svg width="368" height="72" viewBox="0 0 368 72" fill="none" xmlns="http://www.w3.org/2000/svg">
<path d="M114.008 26.3385H98.9258V32.8021H112.35V38.0228H98.9258V44.0721H114.008V49.2927H93.2909V21.1179H114.008V26.3385ZM132.551 19.8748H137.979V49.2927H132.551V48.174C130.894 49.2513 129.001 49.7899 126.874 49.7899C124.14 49.7899 121.806 48.7817 119.872 46.7653C117.966 44.7212 117.013 42.2628 117.013 39.3901C117.013 36.5174 117.966 34.0728 119.872 32.0563C121.806 30.0399 124.14 29.0317 126.874 29.0317C129.001 29.0317 130.894 29.5703 132.551 30.6476V19.8748ZM127.703 44.8593C129.858 44.8593 131.474 44.0859 132.551 42.539V36.2826C131.474 34.7357 129.858 33.9623 127.703 33.9623C126.184 33.9623 124.927 34.5009 123.933 35.5782C122.938 36.6278 122.441 37.8985 122.441 39.3901C122.441 40.9093 122.938 42.2076 123.933 43.2848C124.927 44.3345 126.184 44.8593 127.703 44.8593ZM157.385 29.5289H162.813V49.2927H157.385V47.7182C155.645 49.0994 153.739 49.7899 151.667 49.7899C149.043 49.7899 146.93 48.906 145.328 47.1382C143.726 45.3703 142.925 43.0362 142.925 40.1359V29.5289H148.353V39.8044C148.353 41.4065 148.739 42.6495 149.513 43.5334C150.286 44.4174 151.391 44.8593 152.827 44.8593C154.43 44.8593 155.949 43.9892 157.385 42.249V29.5289ZM177.59 44.8593C178.694 44.8593 179.634 44.5693 180.407 43.9892C181.18 43.4091 181.678 42.6357 181.899 41.6689H187.451C187.147 44.0445 186.07 45.9918 184.219 47.5111C182.368 49.0303 180.158 49.7899 177.59 49.7899C174.634 49.7899 172.134 48.7955 170.09 46.8067C168.074 44.8179 167.065 42.3595 167.065 39.4315C167.065 36.5035 168.074 34.0451 170.09 32.0563C172.134 30.0399 174.634 29.0317 177.59 29.0317C180.131 29.0317 182.327 29.8051 184.177 31.352C186.056 32.8712 187.147 34.8186 187.451 37.1941H181.899C181.678 36.2273 181.18 35.4539 180.407 34.8738C179.634 34.2661 178.694 33.9623 177.59 33.9623C176.07 33.9623 174.841 34.4871 173.902 35.5368C172.963 36.5864 172.493 37.8847 172.493 39.4315C172.493 40.9784 172.963 42.2766 173.902 43.3263C174.841 44.3483 176.07 44.8593 177.59 44.8593ZM206.314 29.5289H211.742V49.2927H206.314V48.174C204.657 49.2513 202.765 49.7899 200.638 49.7899C197.903 49.7899 195.569 48.7817 193.635 46.7653C191.729 44.7488 190.776 42.3043 190.776 39.4315C190.776 36.5588 191.729 34.1142 193.635 32.0978C195.569 30.0537 197.903 29.0317 200.638 29.0317C202.765 29.0317 204.657 29.5703 206.314 30.6476V29.5289ZM201.466 44.8593C203.621 44.8593 205.237 44.0859 206.314 42.539V36.2826C205.237 34.7357 203.621 33.9623 201.466 33.9623C199.947 33.9623 198.69 34.5009 197.696 35.5782C196.701 36.6278 196.204 37.9123 196.204 39.4315C196.204 40.9231 196.701 42.2076 197.696 43.2848C198.69 44.3345 199.947 44.8593 201.466 44.8593ZM231.148 43.9892L231.894 48.9198C230.403 49.4999 228.814 49.7899 227.129 49.7899C224.505 49.7899 222.461 49.0441 220.997 47.5525C219.561 46.0333 218.843 43.9892 218.843 41.4203V34.0866H214.616V29.5289H218.843V22.3609H224.27V29.5289H231.521V34.0866H224.27V41.4203C224.27 42.5252 224.588 43.3677 225.223 43.9478C225.859 44.5002 226.701 44.7765 227.751 44.7765C228.745 44.7765 229.878 44.514 231.148 43.9892ZM239.027 25.6756C238.088 25.6756 237.3 25.3717 236.665 24.764C236.03 24.1563 235.712 23.3967 235.712 22.4852C235.712 21.546 236.03 20.7726 236.665 20.1649C237.3 19.5572 238.088 19.2533 239.027 19.2533C239.938 19.2533 240.712 19.571 241.347 20.2063C242.01 20.814 242.342 21.5736 242.342 22.4852C242.342 23.3967 242.01 24.1563 241.347 24.764C240.712 25.3717 239.938 25.6756 239.027 25.6756ZM236.334 29.5289H241.761V49.2927H236.334V29.5289ZM256.937 29.0317C259.947 29.0317 262.447 30.0123 264.436 31.9735C266.425 33.9347 267.419 36.4207 267.419 39.4315C267.419 42.4424 266.425 44.9284 264.436 46.8896C262.447 48.8231 259.947 49.7899 256.937 49.7899C253.898 49.7899 251.384 48.8231 249.396 46.8896C247.407 44.9284 246.412 42.4424 246.412 39.4315C246.412 36.4207 247.407 33.9347 249.396 31.9735C251.384 30.0123 253.898 29.0317 256.937 29.0317ZM253.249 43.3263C254.188 44.3483 255.417 44.8593 256.937 44.8593C258.456 44.8593 259.671 44.3483 260.583 43.3263C261.522 42.3043 261.991 41.006 261.991 39.4315C261.991 37.8847 261.522 36.5864 260.583 35.5368C259.644 34.4871 258.428 33.9623 256.937 33.9623C255.417 33.9623 254.188 34.4871 253.249 35.5368C252.31 36.5864 251.84 37.8847 251.84 39.4315C251.84 41.006 252.31 42.3043 253.249 43.3263ZM282.424 29.0317C285.076 29.0317 287.189 29.9018 288.764 31.642C290.366 33.3546 291.167 35.6611 291.167 38.5614V49.2927H285.739V38.8929C285.739 37.2908 285.352 36.0754 284.579 35.2467C283.806 34.3904 282.701 33.9623 281.264 33.9623C279.662 33.9623 278.143 34.8048 276.707 36.4897V49.2927H271.279V29.5289H276.707V31.0205C278.364 29.6946 280.27 29.0317 282.424 29.0317ZM312.78 34.6667C314.99 35.0534 316.661 35.8544 317.794 37.0698C318.954 38.2576 319.534 39.7768 319.534 41.6275C319.534 43.9202 318.581 45.7709 316.675 47.1796C314.769 48.5884 312.255 49.2927 309.134 49.2927H297.781V21.1179H308.968C311.703 21.1179 313.885 21.7532 315.515 23.0238C317.144 24.2668 317.959 25.9518 317.959 28.0787C317.959 29.736 317.517 31.1448 316.633 32.3049C315.749 33.4375 314.465 34.2247 312.78 34.6667ZM308.802 22.9824H299.853V34.0451H308.181C310.667 34.0451 312.587 33.5479 313.94 32.5535C315.294 31.5315 315.97 30.109 315.97 28.2859C315.97 26.6838 315.321 25.3993 314.023 24.4325C312.725 23.4658 310.985 22.9824 308.802 22.9824ZM309.051 47.4282C311.592 47.4282 313.623 46.8758 315.142 45.7709C316.689 44.666 317.462 43.2158 317.462 41.4203C317.462 39.6525 316.73 38.2852 315.266 37.3184C313.802 36.324 311.758 35.8268 309.134 35.8268H299.853V47.4282H309.051ZM327.351 32.7607C329.312 30.8271 331.701 29.8603 334.519 29.8603C337.336 29.8603 339.712 30.8271 341.645 32.7607C343.579 34.6667 344.546 37.0284 344.546 39.8459C344.546 42.6633 343.579 45.0251 341.645 46.931C339.712 48.837 337.336 49.7899 334.519 49.7899C331.701 49.7899 329.312 48.837 327.351 46.931C325.39 45.0251 324.409 42.6633 324.409 39.8459C324.409 37.0284 325.39 34.6667 327.351 32.7607ZM334.519 47.9254C336.756 47.9254 338.648 47.152 340.195 45.6051C341.742 44.0307 342.515 42.1109 342.515 39.8459C342.515 37.5808 341.742 35.6611 340.195 34.0866C338.648 32.5121 336.756 31.7249 334.519 31.7249C332.254 31.7249 330.348 32.5121 328.801 34.0866C327.254 35.6611 326.481 37.5808 326.481 39.8459C326.481 42.1109 327.254 44.0307 328.801 45.6051C330.348 47.152 332.254 47.9254 334.519 47.9254ZM365.729 49.2927H363.243L356.324 41.2546L349.404 49.2927H346.96L354.998 39.8459L347.126 30.3576H349.612L356.324 38.3542L363.036 30.3576H365.522L357.691 39.8459L357.65 39.8873L365.729 49.2927Z" fill="#2081F9"/>
<path d="M0 4.07845C0 1.82598 1.82598 0 4.07845 0H67.7022C69.9547 0 71.7807 1.82598 71.7807 4.07845V67.7022C71.7807 69.9547 69.9547 71.7807 67.7022 71.7807H4.07845C1.82598 71.7807 0 69.9547 0 67.7022V4.07845Z" fill="#2081F9"/>
<path fill-rule="evenodd" clip-rule="evenodd" d="M35.4234 15.9512L54.5001 27.8409L35.423 40.1881L22.9061 31.8893V43.3146L35.4516 51.9405L48.3261 43.2991V39.0497H52.6225V45.6141L35.4226 57.1586L18.6098 45.5986V26.6859L35.4234 15.9512ZM24.7155 27.9097L35.4512 35.0276L46.4485 27.9099L35.4509 21.0556L24.7155 27.9097Z" fill="white"/>
</svg>
