<svg width="97" height="96" viewBox="0 0 97 96" fill="none" xmlns="http://www.w3.org/2000/svg">
<path d="M42.5576 0.299423C22.2721 2.89821 5.81943 18.2852 1.78103 38.4211C1.12666 41.6743 0.939697 43.843 0.939697 47.8627C0.939697 51.8824 1.12666 54.0512 1.78103 57.3044C2.65975 61.6793 3.80023 65.0259 5.89421 69.27C12.924 83.5726 26.9275 93.4816 42.8194 95.4448C45.8855 95.8187 51.8123 95.8187 54.8224 95.4261C61.2913 94.6034 67.8911 92.3599 73.2756 89.1628C75.3883 87.8915 78.6414 85.5357 78.791 85.1431C78.8471 84.9935 78.9032 84.5074 78.9032 84.0961C78.9032 83.0678 78.1179 82.2639 77.0709 82.2639C76.4726 82.2639 76.0613 82.4695 74.8648 83.3296C68.508 87.8915 61.8522 90.5463 54.3176 91.5372C51.5692 91.9112 46.1286 91.8925 43.3055 91.5185C36.4065 90.6024 30.2742 88.3215 24.5344 84.5074C14.2327 77.6646 7.38991 67.0451 5.29593 54.6308C4.80983 51.7703 4.80983 43.9552 5.29593 41.0947C6.08117 36.4206 7.24034 32.8122 9.35302 28.4934C16.2519 14.3403 30.6481 4.76784 46.2408 3.9452C52.7284 3.60867 59.2534 4.63696 65.0118 6.9366C66.6384 7.57227 70.1159 9.29233 71.2564 10.0215L72.0042 10.4889L71.2377 11.3489L70.4898 12.2089V17.7617V23.2958L69.9289 23.838C69.5176 24.2307 69.2933 24.3428 69.1063 24.212C68.9754 24.0998 68.1528 23.5015 67.2928 22.8471C63.3105 19.8557 58.4307 17.8178 53.4388 17.0887C50.4661 16.6587 45.1751 16.7895 42.4641 17.3878C30.2368 20.0053 20.926 29.3534 18.2898 41.6182C17.9159 43.413 17.8598 44.1609 17.8598 47.8627C17.8598 51.5646 17.9159 52.3125 18.2898 54.1073C20.926 66.4281 30.1059 75.5893 42.5576 78.3751C44.1655 78.7303 44.9694 78.7864 48.8022 78.7864C52.6536 78.7864 53.4201 78.749 55.028 78.3751C67.4797 75.5893 76.5661 66.5403 79.2958 54.1821C79.8567 51.6581 79.9875 46.1053 79.5762 43.2261C78.8284 38.2155 76.8092 33.3544 73.8178 29.3721C73.1634 28.5121 72.5651 27.6895 72.4529 27.5586C72.3221 27.3716 72.4342 27.1473 72.8269 26.736L73.3691 26.1751H78.9032H84.456L85.316 25.4272L86.176 24.6607L86.6808 25.4646C87.7839 27.1847 89.7657 31.5783 90.5509 34.0088C92.1214 38.7764 92.7384 42.7026 92.7384 47.8627C92.7384 55.2478 91.3362 61.1184 87.9335 67.8678C86.9799 69.7561 86.1947 71.5135 86.1947 71.7379C86.1947 73.3458 88.1017 74.2432 89.317 73.2149C90.3079 72.3736 92.6823 67.6621 94.0471 63.8481C94.8511 61.5858 95.655 58.37 96.1224 55.6404C96.6272 52.7425 96.8142 45.8435 96.4964 42.7587C95.7485 35.841 93.131 28.1195 89.7657 22.9032L89.0552 21.7814L92.8506 17.93L96.6646 14.0786V13.1438C96.6646 12.3772 96.5711 12.1155 96.1785 11.7041L95.6737 11.218H90.5696H85.4469V6.09527V0.991188L84.9608 0.486389C84.5494 0.0937653 84.2877 0.000282288 83.5211 0.000282288H82.5863L78.7349 3.81432L74.8835 7.60966L73.7617 6.89921C68.7511 3.64606 61.4408 1.12206 54.785 0.280731C51.887 -0.074501 45.3994 -0.0558014 42.5576 0.299423ZM82.2124 14.4712L82.6985 14.9573H86.363H90.0274L86.2882 18.6966L82.5489 22.4358H78.3984H74.2291V18.2852V14.116L77.931 10.4141L81.6141 6.73094L81.6702 10.358L81.7076 13.9851L82.2124 14.4712ZM53.1958 21.0523C57.122 21.6693 61.5343 23.5202 64.7501 25.8946C65.6475 26.5677 66.3767 27.166 66.3767 27.2408C66.3767 27.3342 64.3575 29.4095 61.8896 31.8774L57.4024 36.3645L56.8976 36.028C55.832 35.3362 53.3454 34.2519 52.1488 33.9527C51.4009 33.7658 50.1296 33.6536 48.8022 33.6536C46.2969 33.6536 44.8386 33.9714 42.7259 34.9623C39.6971 36.3645 37.4535 38.5894 35.9952 41.5995C34.9108 43.8617 34.593 45.264 34.593 47.8627C34.593 50.368 34.9108 51.8264 35.9017 53.939C37.734 57.8652 41.3423 60.8006 45.5677 61.8102C47.4747 62.2402 51.3635 62.1093 53.1023 61.511C57.9446 59.8657 61.5343 56.033 62.7122 51.2094C63.1048 49.5828 63.1048 46.1427 62.7122 44.5161C62.413 43.3195 61.3287 40.8329 60.6369 39.7673L60.3004 39.2625L64.7875 34.7754C67.2554 32.3074 69.3307 30.2882 69.4241 30.2882C69.4989 30.2882 70.0972 31.0174 70.7703 31.9148C73.1447 35.1306 74.9583 39.4681 75.6313 43.5439C76.1361 46.5727 75.9492 51.3589 75.2013 54.2195C74.9022 55.3973 74.3787 57.0426 74.0608 57.8652C70.2094 67.4938 60.936 74.2993 50.8027 74.9349C42.7259 75.4584 35.2474 72.6727 29.6198 67.0451C26.0114 63.4367 23.7492 59.417 22.403 54.2195C21.8982 52.3498 21.8234 51.6394 21.7487 48.7602C21.6365 44.8153 21.9169 42.7587 23.02 39.3746C24.3661 35.2802 26.4975 31.8587 29.6385 28.6991C35.9391 22.3984 44.3338 19.6688 53.1958 21.0523ZM51.3262 37.8415C52.261 38.0846 53.6819 38.6829 54.2241 39.0568C54.4484 39.2064 53.7754 39.9729 50.7092 43.0578L46.9325 46.8718V47.8067C46.9325 49.1341 47.5308 49.7324 48.8582 49.7324H49.7931L53.6071 45.9557C56.692 42.8895 57.4585 42.2165 57.6081 42.4408C58.0381 43.0578 58.6738 44.647 58.8981 45.6379C59.2347 47.1149 59.0664 49.9193 58.5616 51.3216C57.5146 54.2008 54.8971 56.7622 52.0553 57.697C50.5035 58.2018 47.1008 58.2018 45.549 57.697C42.7072 56.7622 40.0897 54.2008 39.0427 51.3216C38.5379 49.9193 38.3696 47.1149 38.7062 45.6379C39.5288 41.936 42.4641 38.8698 46.1847 37.8415C47.3065 37.5237 50.167 37.5237 51.3262 37.8415Z" fill="white"/>
<path d="M81.8206 77.141C81.428 77.5337 81.3345 77.8141 81.3345 78.5246C81.3345 79.235 81.428 79.5155 81.8206 79.9081C82.2133 80.3007 82.4937 80.3942 83.2042 80.3942C84.4381 80.3942 85.0738 79.7585 85.0738 78.5246C85.0738 77.8141 84.9803 77.5337 84.5877 77.141C83.8772 76.4493 82.5311 76.4493 81.8206 77.141Z" fill="white"/>
</svg>
