<svg width="97" height="97" viewBox="0 0 97 97" fill="none" xmlns="http://www.w3.org/2000/svg">
<path d="M8.32966 1.15176C7.99314 1.39481 7.52574 1.82481 7.32009 2.10525C6.92748 2.62873 6.92748 2.81569 6.87139 13.0797L6.834 23.512L6.3853 23.6241C5.76834 23.7737 4.83354 24.5963 4.44093 25.3068C4.1418 25.8489 4.1231 27.4194 4.06702 46.19L4.02962 66.475L3.41266 66.6993C2.45917 67.0358 1.48699 67.9706 0.963508 69.0176C0.514809 69.915 0.477417 70.1767 0.477417 72.4389C0.477417 75.3181 0.589592 75.5238 2.01047 75.5238C3.2631 75.5238 3.46875 75.1872 3.46875 73.2616C3.46875 71.3359 3.71179 70.4198 4.34745 69.915C4.81485 69.5411 5.0205 69.5411 16.4437 69.5411C26.8759 69.5411 28.1098 69.5785 28.5025 69.8402C29.4186 70.4946 29.4559 70.8872 29.4559 78.5151V85.6195H26.4833C23.2676 85.6195 22.5198 85.7691 22.1833 86.4795C21.585 87.8069 22.5198 91.1909 23.9594 92.8922L24.4455 93.4904L14.6115 93.4344L4.77746 93.3783L4.17919 92.7613L3.56223 92.163L3.50614 85.9934L3.45005 79.8238L2.96396 79.4499C2.347 78.9638 1.59917 78.9638 0.963508 79.4686L0.477417 79.8425V86.3486V92.8361L0.963508 93.8083C1.48699 94.8739 2.25352 95.6031 3.37527 96.1079C4.08571 96.4444 5.88051 96.4631 46.0391 96.4631C75.9338 96.4631 88.2356 96.407 88.9461 96.2574C93.0405 95.3974 96.2 91.6209 96.2 87.5826C96.2 85.5821 96.9105 85.713 86.3473 85.6569L77.2612 85.6008L78.6447 84.7595C83.6178 81.6934 87.8991 76.8699 90.7035 71.1676C95.097 62.2497 95.7327 51.8735 92.4422 42.5069C91.6383 40.2073 89.6939 36.5056 88.1982 34.4116C87.5065 33.4395 86.1791 31.8503 85.2443 30.8594C83.6925 29.2329 83.4869 29.0833 82.8325 29.0833C82.2904 29.0833 82.0286 29.1955 81.6921 29.6068C80.9443 30.4668 81.0938 30.8594 82.9073 32.8225C87.0952 37.3095 89.6752 42.2826 90.9652 48.3213C91.4887 50.7892 91.6757 55.7062 91.3391 58.4545C89.9556 70.2702 82.7577 80.2164 72.3629 84.7221L70.3063 85.6195H59.201H48.0957L46.5065 84.9278C41.253 82.6843 37.0651 79.4499 33.3634 74.7759C32.709 73.972 32.6903 73.8598 32.5781 71.9902C32.4847 70.4198 32.3725 69.8402 31.9799 69.0363C31.4564 67.9706 30.4655 67.0545 29.512 66.6993L28.8951 66.475V54.6779V42.8995L29.9794 40.656C33.7747 32.8599 40.4865 27.0642 48.9557 24.2224C58.1727 21.1376 67.8759 22.2407 76.2703 27.3633C77.5977 28.1672 78.1025 28.2046 78.7381 27.569C79.1121 27.195 79.1868 26.9333 79.1495 26.4098C79.0934 25.8303 78.9438 25.6059 78.1773 25.0263C77.0368 24.1663 73.6342 22.4463 71.5589 21.6798C61.2762 17.9219 48.9931 19.2119 40.15 24.9702C35.9434 27.7185 32.3912 31.1399 29.7738 34.9912L28.9138 36.2438L28.8577 31.0651C28.8016 26.5968 28.7642 25.8116 28.4838 25.3068C28.0912 24.5963 27.1564 23.7737 26.5581 23.6241L26.1094 23.512L26.0533 17.5106L25.9972 11.4906L25.4924 10.4623C24.5016 8.46183 24.3146 8.33096 13.3962 2.06786C11.2649 0.852631 10.9845 0.740456 10.0123 0.740456C9.20837 0.740456 8.79706 0.852631 8.32966 1.15176ZM15.7706 6.92877C18.818 8.68618 21.5663 10.3501 21.8654 10.6305C23.0246 11.6962 23.0994 12.0514 23.0994 18.0715V23.5494H16.4623H9.82533V13.6406C9.82533 6.77921 9.88142 3.73179 10.031 3.73179C10.1245 3.73179 12.7232 5.17136 15.7706 6.92877ZM25.8663 46.4891L25.9037 66.3628H16.4623H7.02096V46.5826C7.02096 35.7016 7.07704 26.7277 7.15183 26.6716C7.20791 26.5968 11.4519 26.5594 16.5371 26.5781L25.8103 26.6342L25.8663 46.4891ZM35.3264 81.3568C36.3734 82.2729 37.9625 83.5443 38.8973 84.1612C39.8134 84.7969 40.6547 85.3765 40.7482 85.4699C40.8604 85.5447 39.0656 85.6195 36.7847 85.6195H32.6342V82.1421V78.646L33.0455 79.1694C33.2512 79.4499 34.2795 80.4221 35.3264 81.3568ZM93.0218 88.8539C93.0218 89.3961 92.0122 91.06 91.3017 91.7143C90.8904 92.0883 90.0678 92.6117 89.4882 92.8922L88.4413 93.3783H59.0888H29.7364L28.6894 92.8735C27.1003 92.0883 25.6981 90.5178 25.2494 89.0221L25.1372 88.6108H59.0701C86.8521 88.6108 93.0218 88.6482 93.0218 88.8539Z" fill="white"/>
<path d="M10.7789 36.6178C10.5733 36.8234 10.3489 37.2721 10.2928 37.6087C10.2367 37.9452 10.1993 43.5726 10.2367 50.1162C10.2928 61.5206 10.3115 62.0441 10.648 62.418C10.9098 62.6985 11.2276 62.8106 11.7885 62.8106C13.2842 62.8106 13.1907 63.708 13.1907 49.574C13.1907 37.2534 13.1907 37.0104 12.8168 36.6365C12.3307 36.1504 11.265 36.1317 10.7789 36.6178Z" fill="white"/>
<path d="M54.976 27.1201C50.9751 27.737 47.2359 29.1579 43.852 31.364C37.4019 35.5332 33.1206 41.815 31.494 49.5364C30.9518 52.1164 30.8958 57.3138 31.3819 59.9499C32.4475 65.7456 35.0649 70.6813 39.2715 74.8692C41.7767 77.3931 43.9641 78.9636 46.9181 80.3845C50.9377 82.3101 54.3964 83.0767 58.9021 83.0767C70.2879 83.0393 79.8601 77.2062 84.4032 67.4843C85.3193 65.5026 85.8241 64.0069 86.4224 61.5017C87.1141 58.6038 87.245 53.182 86.7028 50.0037C85.9924 45.9094 84.5341 42.1515 82.328 38.8423C80.8884 36.6736 77.411 33.1588 75.3544 31.794C72.1948 29.7188 68.5865 28.2418 64.6604 27.4566C62.3795 27.0079 56.939 26.8022 54.976 27.1201ZM63.3891 30.2049C73.8401 31.9997 82.1971 40.4128 83.9732 50.9198C84.4219 53.6494 84.2536 58.286 83.5993 60.9034C80.5519 72.9809 69.1848 81.2258 57.1821 80.0292C45.5159 78.8888 37.0654 71.5039 34.6723 60.3799C34.074 57.6129 34.0554 52.3407 34.6349 49.7233C36.9719 39.235 44.3568 32.1305 54.8264 30.2984C57.369 29.8497 61.1082 29.7936 63.3891 30.2049Z" fill="white"/>
<path d="M52.5266 35.851C52.3209 35.8697 49.4044 38.6554 46.0391 42.0206C40.5986 47.4798 39.9256 48.2089 39.9256 48.7324C39.9256 49.6298 40.636 50.3589 41.496 50.3589C42.1504 50.3589 42.4869 50.0598 48.3574 44.1893C54.1157 38.4123 54.5083 37.9823 54.5083 37.3653C54.5083 36.3745 53.6109 35.6827 52.5266 35.851Z" fill="white"/>
<path d="M63.5758 35.9073C63.1832 36.0195 59.631 39.4408 51.4796 47.6296C40.2995 58.8097 39.9256 59.2023 39.9256 59.8754C39.9256 60.8475 40.58 61.5019 41.5521 61.5019C42.2252 61.5019 42.6178 61.1467 53.7231 50.0414C60.4162 43.3856 65.3145 38.3378 65.4641 37.9825C66.0063 36.7299 64.9406 35.5521 63.5758 35.9073Z" fill="white"/>
</svg>
