<svg width="97" height="97" viewBox="0 0 97 97" fill="none" xmlns="http://www.w3.org/2000/svg">
<path d="M76.2916 2.36727C74.5525 4.14375 74.3094 4.59254 74.646 5.39662C75.02 6.33161 76.142 6.61211 76.9274 5.97632C77.3949 5.62103 77.3949 5.62103 77.7876 6.03242L78.199 6.46251L76.0859 8.55688L73.9728 10.67L73.5801 10.2399C73.1874 9.80976 73.1874 9.80976 73.5427 9.36097C74.4216 8.27638 73.3744 6.66821 71.9907 7.00481C71.7289 7.07961 70.7939 7.86499 69.8963 8.76258C68.419 10.2586 68.2507 10.483 68.2507 11.1187C68.2507 12.035 68.793 12.596 69.6719 12.596C70.0272 12.596 70.476 12.4464 70.6817 12.2781C71.0183 11.9789 71.0557 11.9789 71.4297 12.3903L71.8411 12.8204L70.8874 13.7554C70.3638 14.2603 69.8028 14.9148 69.6532 15.2327C69.2231 16.0555 69.2418 17.5515 69.728 18.3181L70.1207 18.9726L61.3131 27.7989L52.5242 36.6065L51.0096 35.8024C49.2518 34.8487 45.811 33.6519 44.8573 33.6519C43.6793 33.6519 42.9687 35.1666 43.7541 36.0455C43.9224 36.2512 44.8386 36.6439 45.7549 36.9244C47.1761 37.3545 49.8128 38.4952 50.1307 38.8131C50.1868 38.8692 47.5127 41.618 44.1842 44.9466L38.1441 50.9866L36.8165 50.8931C31.8236 50.5939 27.2796 54.3525 26.5503 59.4015C25.7649 64.7683 29.374 69.7611 34.7034 70.6961C36.9287 71.0701 39.9954 70.5652 40.9117 69.6489C41.5101 69.0505 41.5101 68.1903 40.8743 67.5733C40.3507 67.031 40.0328 67.031 38.1815 67.592C35.1335 68.5082 31.5992 66.844 30.1033 63.7959C29.5423 62.6739 29.4862 62.3934 29.4862 60.8601C29.4862 59.4389 29.561 59.0088 29.9911 58.1112C30.6829 56.6152 32.0106 55.2688 33.4879 54.5395C34.5912 54.0159 34.8904 53.9411 36.4051 53.9411C37.9197 53.9411 38.2189 54.0159 39.3222 54.5395C42.389 56.0355 43.9972 59.3828 43.1557 62.5617C42.9874 63.1975 42.8565 63.9268 42.8565 64.1886C42.8565 65.4602 44.5395 66.0212 45.3809 65.0301C45.9793 64.3382 46.4468 62.1316 46.372 60.43L46.3159 59.0836L52.2998 53.0997C55.591 49.8085 58.3399 47.1157 58.396 47.1157C58.6578 47.1157 60.1163 50.65 60.5651 52.3143C61.1635 54.5956 61.2383 57.9429 60.7521 59.8316C60.2098 61.8698 59.1065 63.9455 57.835 65.3106C56.339 66.9001 54.9739 67.7977 52.7673 68.6391C50.3177 69.5554 49.8502 69.8359 48.7282 70.9579C46.9891 72.697 46.4842 74.0995 46.2224 77.8394C46.0354 80.6631 45.4744 82.8696 44.4273 84.964C42.2768 89.2463 38.3685 92.1634 33.3944 93.2106C31.4496 93.622 27.9341 93.6407 25.8023 93.2293C15.1996 91.2284 6.0367 82.0469 4.03583 71.4254C3.62443 69.3123 3.64313 65.7781 4.05453 63.852C5.19521 58.4478 8.56116 54.3338 13.4979 52.2956C15.3679 51.5289 16.7329 51.2297 19.4818 51.0427C20.8656 50.9305 22.4364 50.7248 22.9413 50.5752C24.7551 50.0516 26.8682 48.3499 27.7097 46.7417C27.8593 46.48 28.2707 45.4702 28.6447 44.4978C29.4675 42.3099 30.3651 40.9261 31.8797 39.5049C33.6375 37.8594 35.9937 36.7374 38.649 36.2886C40.3694 35.9894 40.9304 34.9235 40.0141 33.7454C39.6214 33.2405 39.5653 33.2405 38.3311 33.334C36.7978 33.4649 33.7497 34.4747 32.2537 35.3536C31.6553 35.7089 30.4025 36.7374 29.4675 37.6724C27.5788 39.5424 26.6999 40.9448 25.7462 43.5628C25.0917 45.3767 24.6055 46.1434 23.7079 46.8352C22.6234 47.658 21.7819 47.8824 19.1265 48.0507C13.6849 48.406 9.90754 49.9955 6.35459 53.4363C3.96103 55.755 2.37155 58.4665 1.41786 61.9259C0.763373 64.3008 0.576375 68.957 1.04387 71.7059C3.10084 83.7859 13.6849 94.3326 25.6527 96.2213C28.252 96.6327 32.9456 96.5018 35.0026 95.9595C39.8084 94.6692 43.5858 91.9951 46.1663 88.0308C47.9241 85.3567 49.2144 81.168 49.2144 78.1947C49.2144 74.4548 50.4486 72.6035 53.6462 71.5376C56.0398 70.7335 57.7228 69.6863 59.5179 67.8912C60.4342 66.9749 61.444 65.722 61.8928 64.974C63.6319 62.0194 64.4173 58.1112 64.0059 54.5021C63.6693 51.4915 62.5099 47.9385 61.1261 45.6011L60.6399 44.7783L62.9587 42.4221C65.0905 40.2716 65.2962 40.0098 65.2962 39.3927C65.2962 37.8594 63.7067 37.4293 62.4912 38.6074L61.818 39.2619L59.9106 37.3358L58.0033 35.4284L61.0513 32.3803L64.0807 29.351L66.0067 31.2771L67.9141 33.2031L67.3531 33.7454C66.2311 34.8113 66.7734 36.4569 68.232 36.4569C68.8865 36.4569 69.1857 36.1951 73.6175 31.8007L78.2925 27.1631L78.9096 27.5371C79.6763 27.9859 81.247 28.042 82.0324 27.6119C82.3503 27.4623 83.0048 26.9013 83.5097 26.3777L84.4447 25.424L84.8748 25.8354C85.2862 26.2094 85.2862 26.2468 84.987 26.5834C84.8187 26.7891 84.6691 27.2379 84.6691 27.5932C84.6691 28.4721 85.2301 29.0144 86.1464 29.0144C86.7822 29.0144 87.0066 28.8461 88.5025 27.3688C89.4001 26.4712 90.1855 25.5362 90.2603 25.2744C90.5969 23.8907 88.9887 22.8435 87.9041 23.7224C87.4553 24.0777 87.4553 24.0777 87.0253 23.685L86.5952 23.2923L88.7082 21.1792L90.8026 19.0661L91.2327 19.4775C91.6441 19.8702 91.6441 19.8702 91.2888 20.3377C90.653 21.1231 90.9335 22.2451 91.8498 22.6191C92.6913 22.9557 93.2336 22.6752 94.9165 20.9361C96.3938 19.4401 96.5247 19.2344 96.5247 18.5612C96.5247 18.0377 96.4125 17.7011 96.1507 17.4767C95.6645 17.0279 94.5986 17.0092 94.1311 17.4393C93.7946 17.7385 93.7572 17.7385 93.3832 17.3271L92.9718 16.897L93.832 16.0555C94.3181 15.6067 94.823 14.9709 94.9539 14.6343C95.2905 13.8489 95.2905 12.4838 94.9539 11.7171C94.6173 10.9504 86.1277 2.49817 85.4358 2.23637C84.6878 1.97457 83.3414 1.99327 82.6308 2.31116C82.2942 2.44207 81.6584 2.94696 81.2096 3.43315L80.3681 4.29334L79.938 3.88194C79.5267 3.50795 79.5267 3.47055 79.8259 3.13396C80.2559 2.66647 80.2372 1.60058 79.7885 1.11439C79.5454 0.852592 79.2275 0.740387 78.6852 0.740387C77.9559 0.740387 77.8063 0.852592 76.2916 2.36727ZM88.2407 9.00568C90.4286 11.1935 92.2238 13.0635 92.2238 13.1757C92.2238 13.4188 80.7795 24.8631 80.5364 24.8631C80.2933 24.8631 72.4021 16.9718 72.4021 16.7287C72.4021 16.4856 83.8463 5.04133 84.0894 5.04133C84.1829 5.04133 86.0529 6.8365 88.2407 9.00568ZM73.1126 27.9859L70.0646 31.034L68.1572 29.1266L66.2311 27.2005L69.2605 24.1712L72.3086 21.1231L74.2159 23.0305L76.142 24.9566L73.1126 27.9859ZM56.6569 44.4417L53.6088 47.4897L51.7015 45.5824L49.7754 43.6563L52.8047 40.6269L55.8528 37.5789L57.7602 39.4862L59.6862 41.4123L56.6569 44.4417ZM48.3355 52.7818C45.2313 55.8859 45.1939 55.9046 44.9134 55.4932C44.4273 54.7265 42.6134 52.9127 41.9589 52.5013L41.3231 52.1086L44.4647 48.967L47.6249 45.8068L49.5323 47.7141L51.4584 49.6402L48.3355 52.7818Z" fill="white"/>
<path d="M11.9637 71.1825C9.7758 73.3143 9.4018 74.0997 9.9628 75.2217C10.262 75.8014 21.3322 86.909 21.9493 87.2456C23.1648 87.8814 23.8941 87.5448 26.082 85.3008L27.7088 83.6366V82.6268V81.617L21.6688 75.5957L15.6475 69.5557H14.6377H13.6279L11.9637 71.1825ZM19.5745 77.7835L24.4177 82.6455L23.6884 83.3935L22.9591 84.1415L18.0411 79.2421L13.1231 74.3241L13.8149 73.6322C14.1889 73.2395 14.5629 72.9216 14.619 72.9216C14.6751 72.9216 16.9004 75.1095 19.5745 77.7835Z" fill="white"/>
</svg>
