<svg width="310" height="92" viewBox="0 0 310 92" fill="none" xmlns="http://www.w3.org/2000/svg">
<path d="M108.841 23.5034C108.841 25.4314 108.267 26.9692 107.12 28.0939C105.834 29.4481 104.136 30.1367 102.07 30.1367C100.073 30.1367 98.3975 29.4481 96.9974 28.071C95.5973 26.6938 94.9088 24.9724 94.9088 22.9525C94.9088 20.9098 95.5973 19.2113 96.9974 17.8341C98.3975 16.457 100.073 15.7684 102.07 15.7684C103.057 15.7684 103.998 15.952 104.893 16.3422C105.788 16.7324 106.5 17.2374 107.051 17.88L105.834 19.0965C104.916 18.0177 103.677 17.4669 102.07 17.4669C100.624 17.4669 99.3616 17.9718 98.3057 19.0047C97.2499 20.0146 96.722 21.3459 96.722 22.9755C96.722 24.6051 97.2499 25.9364 98.3057 26.9463C99.3616 27.9562 100.624 28.4841 102.07 28.4841C103.608 28.4841 104.893 27.9791 105.926 26.9463C106.592 26.2807 106.982 25.3396 107.074 24.1461H102.07V22.4935H108.749C108.795 22.8378 108.841 23.1821 108.841 23.5034Z" fill="#2081F9"/>
<path d="M119.422 17.7653H113.156V22.1262H118.802V23.7788H113.156V28.1398H119.422V29.8383H111.389V16.0668H119.422V17.7653Z" fill="#2081F9"/>
<path d="M126.882 29.8383H125.114V17.7653H121.258V16.0668H130.715V17.7653H126.859V29.8383H126.882Z" fill="#2081F9"/>
<path d="M137.578 29.8383V16.0668H139.345V29.8383H137.578Z" fill="#2081F9"/>
<path d="M147.195 29.8383H145.427V17.7653H141.571V16.0668H151.028V17.7653H147.172V29.8383H147.195Z" fill="#2081F9"/>
<path d="M168.954 28.048C167.599 29.4481 165.924 30.1367 163.904 30.1367C161.884 30.1367 160.209 29.4481 158.855 28.048C157.5 26.6479 156.835 24.9494 156.835 22.9525C156.835 20.9557 157.5 19.2342 158.855 17.8571C160.209 16.457 161.884 15.7684 163.904 15.7684C165.901 15.7684 167.577 16.457 168.954 17.8571C170.308 19.2572 170.996 20.9557 170.996 22.9525C170.973 24.9724 170.308 26.6709 168.954 28.048ZM160.163 26.9004C161.173 27.9332 162.435 28.4382 163.904 28.4382C165.373 28.4382 166.635 27.9332 167.645 26.9004C168.655 25.8675 169.183 24.5592 169.183 22.9525C169.183 21.3459 168.678 20.0376 167.645 19.0047C166.635 17.9718 165.373 17.4669 163.904 17.4669C162.435 17.4669 161.173 17.9718 160.163 19.0047C159.153 20.0376 158.625 21.3459 158.625 22.9525C158.625 24.5592 159.153 25.8675 160.163 26.9004Z" fill="#2081F9"/>
<path d="M173.475 29.8383V16.0668H175.633L182.335 26.7856H182.404L182.335 24.1231V16.0668H184.102V29.8383H182.266L175.266 18.6145H175.197L175.266 21.277V29.8383H173.475Z" fill="#2081F9"/>
<path d="M156.399 49.9218C151.005 49.9218 146.598 54.0303 146.598 59.6766C146.598 65.3 151.005 69.4314 156.399 69.4314C161.792 69.4314 166.199 65.3 166.199 59.6766C166.199 54.0303 161.792 49.9218 156.399 49.9218ZM156.399 65.5984C153.438 65.5984 150.89 63.1654 150.89 59.6766C150.89 56.1649 153.438 53.7548 156.399 53.7548C159.359 53.7548 161.907 56.1649 161.907 59.6766C161.907 63.1654 159.337 65.5984 156.399 65.5984ZM135.007 49.9218C129.613 49.9218 125.206 54.0303 125.206 59.6766C125.206 65.3 129.613 69.4314 135.007 69.4314C140.401 69.4314 144.808 65.3 144.808 59.6766C144.808 54.0303 140.401 49.9218 135.007 49.9218ZM135.007 65.5984C132.046 65.5984 129.498 63.1654 129.498 59.6766C129.498 56.1649 132.046 53.7548 135.007 53.7548C137.968 53.7548 140.515 56.1649 140.515 59.6766C140.515 63.1654 137.968 65.5984 135.007 65.5984ZM109.575 52.9286V57.06H119.491C119.193 59.3782 118.412 61.0997 117.242 62.2702C115.796 63.7163 113.546 65.3 109.598 65.3C103.493 65.3 98.7189 60.3881 98.7189 54.2828C98.7189 48.1774 103.493 43.2655 109.598 43.2655C112.881 43.2655 115.291 44.5509 117.058 46.2264L119.973 43.3115C117.494 40.9473 114.212 39.1341 109.575 39.1341C101.221 39.1341 94.1972 45.928 94.1972 54.3057C94.1972 62.6604 101.221 69.4773 109.575 69.4773C114.097 69.4773 117.494 68.0084 120.157 65.2311C122.888 62.4998 123.737 58.6437 123.737 55.5452C123.737 54.5811 123.668 53.686 123.508 52.9515H109.575V52.9286ZM213.573 56.1419C212.77 53.9614 210.291 49.9218 205.219 49.9218C200.192 49.9218 196.015 53.8696 196.015 59.6766C196.015 65.1393 200.146 69.4314 205.701 69.4314C210.176 69.4314 212.77 66.7001 213.826 65.1164L210.498 62.89C209.396 64.5196 207.881 65.5984 205.701 65.5984C203.52 65.5984 201.959 64.5885 200.972 62.6375L214.032 57.2436L213.573 56.1419ZM200.261 59.4012C200.146 55.637 203.176 53.709 205.356 53.709C207.055 53.709 208.501 54.5582 208.983 55.7747L200.261 59.4012ZM189.657 68.8576H193.949V40.167H189.657V68.8576ZM182.633 52.1023H182.473C181.509 50.9546 179.673 49.9218 177.331 49.9218C172.442 49.9218 167.967 54.2139 167.967 59.7225C167.967 65.1852 172.442 69.4544 177.331 69.4544C179.65 69.4544 181.509 68.4215 182.473 67.228H182.61V68.6281C182.61 72.3694 180.614 74.3662 177.4 74.3662C174.784 74.3662 173.154 72.4841 172.488 70.9004L168.747 72.4612C169.826 75.0548 172.672 78.2223 177.4 78.2223C182.427 78.2223 186.673 75.2614 186.673 68.0543V50.5185H182.61V52.1023H182.633ZM177.699 65.5984C174.738 65.5984 172.259 63.1195 172.259 59.7225C172.259 56.2796 174.738 53.7778 177.699 53.7778C180.614 53.7778 182.909 56.3026 182.909 59.7225C182.932 63.1195 180.637 65.5984 177.699 65.5984ZM233.68 40.167H223.42V68.8576H227.712V57.9781H233.703C238.454 57.9781 243.113 54.5352 243.113 49.0725C243.113 43.6098 238.408 40.167 233.68 40.167ZM233.772 53.9844H227.689V44.1377H233.772C236.985 44.1377 238.798 46.8002 238.798 49.0496C238.798 51.2989 236.985 53.9844 233.772 53.9844ZM260.259 49.8759C257.16 49.8759 253.947 51.253 252.616 54.2598L256.426 55.8435C257.229 54.2598 258.744 53.7319 260.328 53.7319C262.531 53.7319 264.803 55.0631 264.826 57.4273V57.7256C264.046 57.2896 262.393 56.6239 260.351 56.6239C256.242 56.6239 252.088 58.8733 252.088 63.0736C252.088 66.9067 255.439 69.3855 259.203 69.3855C262.072 69.3855 263.679 68.1002 264.666 66.5853H264.803V68.8117H268.935V57.8175C268.958 52.722 265.148 49.8759 260.259 49.8759ZM259.731 65.5984C258.331 65.5984 256.38 64.8868 256.38 63.1654C256.38 60.962 258.813 60.1127 260.924 60.1127C262.807 60.1127 263.702 60.5259 264.826 61.0767C264.505 63.7163 262.21 65.5984 259.731 65.5984ZM284.015 50.4956L279.103 62.9359H278.965L273.87 50.4956H269.256L276.899 67.8936L272.539 77.5566H277.014L288.789 50.4956H284.015ZM245.454 68.8576H249.747V40.167H245.454V68.8576Z" fill="#2081F9"/>
<path d="M23.9625 17.3062C23.2968 18.0177 22.9066 19.1195 22.9066 20.5196V71.2906C22.9066 72.7137 23.2968 73.8154 23.9625 74.504L24.1231 74.6646L52.5613 46.2494V45.5608L24.1231 17.1455L23.9625 17.3062Z" fill="#2081F9"/>
<path d="M63.0452 55.7288L53.5658 46.2494V45.5608L63.0452 36.0814L63.2518 36.1962L74.4756 42.577C77.6889 44.3902 77.6889 47.3741 74.4756 49.2103L63.2518 55.5911L63.0452 55.7288Z" fill="#2081F9"/>
<path d="M62.2473 57.8863L52.5613 48.2003L23.9625 76.7992C25.0183 77.9239 26.7627 78.0616 28.7366 76.9369L62.2473 57.8863Z" fill="#2081F9"/>
<path d="M62.2473 33.9239L28.7136 14.8732C26.7397 13.7486 24.9953 13.8863 23.9395 15.011L52.5613 43.6098L62.2473 33.9239Z" fill="#2081F9"/>
<path d="M298.383 1.8362C303.708 1.8362 308.023 6.15128 308.023 11.4763V80.3339C308.023 85.6589 303.708 89.974 298.383 89.974H11.4763C6.15128 89.974 1.8362 85.6589 1.8362 80.3339V11.4763C1.8362 6.15128 6.15128 1.8362 11.4763 1.8362H298.383ZM298.383 0H11.4763C5.16432 0 0 5.16432 0 11.4763V80.3339C0 86.6458 5.16432 91.8102 11.4763 91.8102H298.383C304.695 91.8102 309.859 86.6458 309.859 80.3339V11.4763C309.859 5.16432 304.695 0 298.383 0Z" fill="#2081F9"/>
</svg>
