<svg width="110" height="97" viewBox="0 0 110 97" fill="none" xmlns="http://www.w3.org/2000/svg">
<path d="M49.7095 0.623459C43.561 1.58084 37.6252 4.24025 36.0934 6.75073L35.4551 7.79322L35.3913 12.3461L35.3275 16.8778H22.0942C14.7117 16.8778 8.30787 16.9629 7.62706 17.0905C4.88255 17.5373 2.6061 19.218 1.39341 21.6647L0.776428 22.9412V36.451V49.9608L1.32959 51.1309C1.62744 51.7905 2.1806 52.6627 2.54228 53.067L3.20181 53.8329L3.26563 71.6828C3.32946 89.2349 3.32946 89.554 3.77624 90.6178C4.77618 93.0645 6.54202 94.809 8.86103 95.6175C9.98862 96.0005 10.946 96.0217 42.7951 96.0217C75.2824 96.0217 75.559 96.0217 75.9845 95.5962C76.5802 95.0005 76.5589 93.6814 75.9632 93.1283C75.5164 92.7453 74.6016 92.7241 42.8163 92.6177L10.095 92.5113L9.07378 91.8731C8.3717 91.4263 7.86109 90.8731 7.39303 90.0647L6.7335 88.8945L6.66968 72.6615C6.6484 63.7472 6.66968 56.4497 6.7335 56.4497C6.77605 56.4497 7.37176 56.7901 8.03129 57.2157C9.81841 58.3645 15.584 61.1303 16.4776 61.2792C17.5201 61.4494 18.2647 60.9388 18.4562 59.9602C18.6689 58.79 18.2221 58.3645 15.6266 57.2369C10.9035 55.1945 5.90377 51.9607 4.7549 50.2374L4.18047 49.3438L4.11664 36.7701C4.05282 22.7072 3.98899 23.3454 5.56336 21.7711C7.18028 20.1541 3.18053 20.2818 55.1347 20.2818C105.132 20.2818 102.706 20.2393 104.281 21.3456C104.642 21.6009 105.217 22.3029 105.557 22.8987L106.195 24.005V36.4297C106.195 48.6204 106.195 48.897 105.749 49.7906C105.238 50.8543 104.217 51.7692 101.834 53.3648C96.3449 57.0242 88.5156 60.0453 79.9204 61.8324C74.7931 62.8961 67.3467 63.8748 64.2405 63.8961H63.0066V61.7047C63.0066 58.9815 62.5598 57.939 61.0705 57.088C60.1557 56.5561 60.0706 56.5561 55.1347 56.5561C49.3479 56.5561 48.9436 56.6625 47.8799 58.3432C47.3054 59.2368 47.2629 59.4283 47.2629 61.5984V63.8961H46.0927C42.0079 63.8961 32.0085 62.3855 26.328 60.9175C24.9877 60.5559 23.6473 60.2793 23.3495 60.2793C21.9879 60.2793 21.3922 62.3643 22.4772 63.2153C22.9878 63.6195 27.0301 64.7045 30.8809 65.4705C34.5403 66.1938 41.7313 67.0874 46.3055 67.364L47.1565 67.4065L47.3054 68.8745C47.965 75.5124 56.007 78.3633 60.7301 73.6402C62.0066 72.3636 62.7938 70.7042 62.964 68.8319L63.1129 67.4065L63.964 67.364C78.963 66.4704 91.9622 63.1515 101.196 57.8326C102.366 57.1518 103.408 56.5561 103.493 56.5136C103.578 56.4497 103.621 63.7259 103.6 72.6615L103.536 88.8945L103.047 89.8306C102.493 90.8518 101.749 91.6177 100.77 92.1709C100.217 92.4688 98.8979 92.5326 90.324 92.6177C81.048 92.7241 80.4736 92.7453 80.0481 93.1283C79.4524 93.6814 79.4311 95.0005 80.0268 95.5962C80.4523 96.0217 80.6438 96.043 90.7282 95.9792L100.983 95.9154L102.217 95.3196C104.621 94.1282 106.408 91.7454 106.834 89.086C106.961 88.3414 107.046 80.8525 107.046 70.8318V53.8542L107.706 53.0882C108.089 52.6627 108.642 51.7905 108.94 51.1309L109.493 49.9608V36.451V22.9412L108.876 21.6647C107.663 19.218 105.387 17.5373 102.642 17.0905C101.962 16.9629 95.5577 16.8778 88.1752 16.8778H74.942L74.8782 12.3461C74.8143 7.83577 74.8143 7.83577 74.2186 6.81456C73.2187 5.11253 70.304 3.34669 66.1979 1.9638C63.6874 1.13406 62.8576 1.11279 62.2194 1.8787C61.0705 3.19776 61.8577 4.26153 64.5597 5.06998C66.6021 5.6657 70.4104 7.51664 71.0274 8.19745C71.3678 8.58041 71.4103 9.11229 71.4741 12.7504L71.538 16.8778H69.7296H67.8999V13.729C67.8999 10.0697 67.9212 10.1335 65.6447 9.17611C62.5385 7.85705 59.1132 7.21879 55.1347 7.21879C51.0499 7.21879 47.4969 7.8996 44.4971 9.23994C42.2845 10.2611 42.3696 10.091 42.3696 13.729V16.8778H40.5399H38.7315L38.7953 12.7504C38.8591 9.19739 38.9017 8.55913 39.2208 8.21873C39.8165 7.55919 43.1355 5.89972 45.263 5.19764C48.1352 4.21898 51.6669 3.6871 55.0496 3.6871C57.8154 3.6871 57.9431 3.66582 58.4324 3.15521C58.7728 2.83608 58.9643 2.38931 58.9643 1.98507C58.9643 1.58084 58.7728 1.13406 58.4324 0.814934C57.9431 0.304329 57.8367 0.283051 54.773 0.304329C53.0498 0.3256 50.7733 0.453255 49.7095 0.623459ZM59.8153 11.0483C60.7088 11.2185 62.113 11.5802 62.9215 11.8355L64.3895 12.3461L64.4533 14.6013L64.5171 16.8778H55.1347H45.7523L45.8162 14.6013L45.88 12.3461L47.3693 11.8355C48.7947 11.3675 51.369 10.8143 53.1136 10.6228C54.4752 10.4952 58.0494 10.7079 59.8153 11.0483ZM59.3472 60.0453C59.56 60.1729 59.6025 61.2154 59.56 64.9173L59.4962 69.5979L58.8579 70.534C56.9857 73.1721 53.2838 73.1721 51.4116 70.534L50.7733 69.5979L50.7095 64.9173C50.6669 61.2154 50.7095 60.1729 50.9222 60.0453C51.2839 59.8112 58.9855 59.8112 59.3472 60.0453Z" fill="white"/>
</svg>
