<svg width="97" height="97" viewBox="0 0 97 97" fill="none" xmlns="http://www.w3.org/2000/svg">
<path d="M9.03698 0.691078C6.06627 1.64005 3.48754 3.72366 2.16723 6.24051C0.723136 8.98428 0.785026 8.28287 0.785026 24.4773C0.785026 38.8151 0.785026 39.0833 1.19762 39.4959C1.46581 39.7641 1.87841 39.9085 2.43542 39.9085C2.99242 39.9085 3.40502 39.7641 3.67321 39.4959C4.08581 39.0833 4.08581 38.8151 4.08581 25.7151C4.08581 17.8758 4.18896 11.7693 4.2921 10.9235C4.58092 8.96365 5.30297 7.51956 6.64391 6.15799C8.00548 4.81705 9.44957 4.095 11.4094 3.80618C12.2965 3.6824 19.5788 3.59988 29.935 3.59988H46.9959V25.055V46.51H24.3031C1.87841 46.51 1.61022 46.51 1.19762 46.9226C0.785026 47.3352 0.785026 47.6034 0.785026 66.8923C0.785026 88.5743 0.702506 87.2953 2.16723 90.0803C3.50817 92.6384 6.23131 94.8046 9.22264 95.6917C10.2335 95.9805 13.72 96.0217 43.1175 96.0217C75.6096 96.0217 75.8778 96.0217 76.2904 95.6091C76.8474 95.0521 76.8474 93.6906 76.2904 93.1335C75.8778 92.7209 75.6096 92.7209 63.0872 92.7209H50.2967V71.2659V49.8108H68.0384C85.5119 49.8108 85.7801 49.8108 86.1927 49.3982C86.7497 48.8412 86.7497 47.4796 86.1927 46.9226C85.7801 46.51 85.5119 46.51 68.0384 46.51H50.2967V25.055V3.59988H67.3783C77.7138 3.59988 84.9962 3.6824 85.8833 3.80618C87.8431 4.095 89.2872 4.81705 90.6488 6.15799C91.9897 7.51956 92.7118 8.96365 93.0006 10.9235C93.1244 11.8518 93.2069 25.22 93.2069 48.1604C93.2069 71.1008 93.1244 84.469 93.0006 85.3973C92.7118 87.3366 91.9897 88.8013 90.6694 90.1216C89.0809 91.7307 87.8637 92.2671 85.0993 92.6178C83.8203 92.7828 83.3045 93.2986 83.3045 94.3713C83.3045 95.6504 83.8203 96.0217 85.5326 96.0217C89.2872 96.0217 93.3307 93.5049 95.1254 90.0803C96.6108 87.2128 96.5076 90.658 96.5076 48.1604C96.5076 5.6835 96.6108 9.08743 95.1461 6.26114C93.8258 3.74429 91.4533 1.78445 88.6064 0.814857L87.0385 0.29911L48.6051 0.31974C12.4203 0.31974 10.1097 0.34037 9.03698 0.691078ZM46.9959 71.2659V92.7209H29.935C19.5788 92.7209 12.2965 92.6384 11.4094 92.5146C9.44957 92.2258 8.00548 91.5038 6.64391 90.1628C5.30297 88.8013 4.58092 87.3572 4.2921 85.3973C4.16833 84.5103 4.08581 77.2279 4.08581 66.8717V49.8108H25.5409H46.9959V71.2659Z" fill="white"/>
<path d="M17.3295 63.0762C17.0201 63.4063 16.8757 63.8189 16.8757 64.3552C16.8757 65.0979 17.0614 65.3248 19.9083 68.213L22.9409 71.2662L19.9083 74.3195C16.9788 77.2902 16.8757 77.4139 16.8757 78.2391C16.8757 79.3944 17.4121 79.9308 18.5673 79.9308C19.3925 79.9308 19.5163 79.8276 22.487 76.8982L25.5402 73.8656L28.5935 76.8982C31.5229 79.7864 31.6879 79.9308 32.4925 79.9308C33.5653 79.9308 34.2048 79.2913 34.2048 78.1772C34.2048 77.4346 34.0191 77.2076 31.1722 74.3195L28.1396 71.2662L31.1722 68.213C34.0604 65.2836 34.2048 65.1185 34.2048 64.314C34.2048 63.2412 33.5653 62.6017 32.4512 62.6017C31.7086 62.6017 31.4816 62.7874 28.5935 65.6343L25.5402 68.6669L22.487 65.6343C19.5576 62.7461 19.3925 62.6017 18.588 62.6017C18.0103 62.6017 17.639 62.7255 17.3295 63.0762Z" fill="white"/>
<path d="M24.3049 13.9148C23.9129 14.3068 23.8923 14.5956 23.8923 18.866V23.4045H19.3537C15.0834 23.4045 14.7945 23.4252 14.4026 23.8171C14.1344 24.0853 13.99 24.4979 13.99 25.0549C13.99 25.6119 14.1344 26.0245 14.4026 26.2927C14.7945 26.6847 15.0834 26.7053 19.3537 26.7053H23.8923V31.2439C23.8923 35.5143 23.9129 35.8031 24.3049 36.1951C24.5731 36.4633 24.9857 36.6077 25.5427 36.6077C26.0997 36.6077 26.5123 36.4633 26.7805 36.1951C27.1725 35.8031 27.1931 35.5143 27.1931 31.2439V26.7053H31.7317C36.0021 26.7053 36.2909 26.6847 36.6828 26.2927C36.951 26.0245 37.0954 25.6119 37.0954 25.0549C37.0954 24.4979 36.951 24.0853 36.6828 23.8171C36.2909 23.4252 36.0021 23.4045 31.7317 23.4045H27.1931V18.866C27.1931 14.5956 27.1725 14.3068 26.7805 13.9148C26.5123 13.6466 26.0997 13.5022 25.5427 13.5022C24.9857 13.5022 24.5731 13.6466 24.3049 13.9148Z" fill="white"/>
<path d="M60.6112 23.8177C60.343 24.0859 60.1986 24.4985 60.1986 25.0555C60.1986 25.6125 60.343 26.0251 60.6112 26.2933C61.0031 26.6853 61.292 26.7059 71.7513 26.7059C82.2107 26.7059 82.4995 26.6853 82.8914 26.2933C83.1596 26.0251 83.304 25.6125 83.304 25.0555C83.304 24.4985 83.1596 24.0859 82.8914 23.8177C82.4995 23.4258 82.2107 23.4052 71.7513 23.4052C61.292 23.4052 61.0031 23.4258 60.6112 23.8177Z" fill="white"/>
<path d="M60.6112 63.4269C60.343 63.6951 60.1986 64.1077 60.1986 64.6647C60.1986 65.2217 60.343 65.6343 60.6112 65.9025C61.0031 66.2944 61.292 66.3151 71.7513 66.3151C82.2107 66.3151 82.4995 66.2944 82.8914 65.9025C83.1596 65.6343 83.304 65.2217 83.304 64.6647C83.304 64.1077 83.1596 63.6951 82.8914 63.4269C82.4995 63.0349 82.2107 63.0143 71.7513 63.0143C61.292 63.0143 61.0031 63.0349 60.6112 63.4269Z" fill="white"/>
<path d="M60.6112 76.6294C60.343 76.8976 60.1986 77.3102 60.1986 77.8672C60.1986 78.4242 60.343 78.8368 60.6112 79.105C61.0031 79.4969 61.292 79.5176 71.7513 79.5176C82.2107 79.5176 82.4995 79.4969 82.8914 79.105C83.1596 78.8368 83.304 78.4242 83.304 77.8672C83.304 77.3102 83.1596 76.8976 82.8914 76.6294C82.4995 76.2374 82.2107 76.2168 71.7513 76.2168C61.292 76.2168 61.0031 76.2374 60.6112 76.6294Z" fill="white"/>
</svg>
