<svg width="97" height="97" viewBox="0 0 97 97" fill="none" xmlns="http://www.w3.org/2000/svg">
<path d="M62.6382 0.513321C61.234 0.962685 60.5787 1.43077 58.6876 3.28439L56.7965 5.11929L55.8791 4.70737C55.1114 4.35163 54.6433 4.27674 52.9957 4.27674C51.1795 4.27674 50.9361 4.31419 49.7752 4.87589C48.1837 5.62482 46.948 6.86058 46.199 8.45207C45.6373 9.63165 45.5999 9.83761 45.5999 11.7661C45.5999 15.0427 45.5437 14.9491 52.3965 21.8393L58.1446 27.5875L42.9224 42.7909L27.719 58.0131L21.9709 52.265C15.0806 45.4122 15.1742 45.4684 11.8976 45.4684C9.96912 45.4684 9.76316 45.5058 8.58358 46.0675C6.99209 46.8165 5.75634 48.0522 5.0074 49.6437C4.44569 50.8046 4.40825 51.048 4.40825 52.8641C4.40825 54.5118 4.48314 54.9799 4.83889 55.7476L5.2508 56.665L3.37846 58.5748C0.850788 61.1586 0.476318 61.945 0.476318 64.7535C0.476318 66.6821 0.513765 66.888 1.07547 68.0863C1.59973 69.191 2.19888 69.8838 5.34442 73.0668L8.97677 76.7553L5.70017 80.0132C3.90271 81.8106 2.29249 83.5332 2.12398 83.8328C1.50611 85.0123 1.74951 85.3681 6.24315 89.8804C8.50869 92.1647 10.6619 94.1868 11.0176 94.3553C12.1972 94.917 12.6653 94.6175 16.3913 90.8915L19.7428 87.5213L23.4313 91.1536C26.6143 94.2992 27.3071 94.8983 28.4117 95.4226C29.61 95.9843 29.816 96.0217 31.7445 96.0217C34.553 96.0217 35.3394 95.6473 37.9233 93.1196L39.833 91.2472L40.7505 91.6592C41.5182 92.0149 41.9862 92.0898 43.6339 92.0898C45.4501 92.0898 45.6935 92.0524 46.8544 91.4906C48.4458 90.7417 49.6816 89.506 50.4305 87.9145C50.9922 86.7349 51.0297 86.5289 51.0297 84.6004C51.0297 81.3238 51.0859 81.3987 44.2331 74.5459L38.485 68.7791L43.2033 64.0608C45.7871 61.4582 47.959 59.1178 48.0339 58.8931C48.4271 57.5637 47.5284 56.4216 46.1054 56.4216H45.2441L40.4509 61.1961L35.6764 65.9706L33.0926 63.3867L30.5275 60.8216L45.7309 45.6182L60.9531 30.396L63.5182 32.9611L66.1021 35.5449L61.1404 40.5066L56.1786 45.4871V46.3671C56.1786 47.3594 56.6842 48.0709 57.5642 48.2956C58.594 48.539 59.0246 48.2207 64.0051 43.259L68.9106 38.3535L74.6774 44.1016C81.5302 50.9543 81.4553 50.8982 84.7319 50.8982C86.6604 50.8982 86.8664 50.8607 88.046 50.299C89.6375 49.5501 90.8732 48.3143 91.6222 46.7228C92.1839 45.562 92.2213 45.3186 92.2213 43.5024C92.2213 41.8547 92.1464 41.3867 91.7907 40.619L91.3788 39.7015L93.2511 37.7917C95.7788 35.2079 96.1532 34.4215 96.1532 31.613C96.1532 29.6845 96.1158 29.4785 95.5541 28.2802C95.0298 27.1755 94.4307 26.4828 91.2851 23.2998L87.6528 19.6113L90.9294 16.3534C92.7269 14.5559 94.3371 12.8334 94.5056 12.5338C95.1235 11.3355 94.8988 11.0172 90.1992 6.29887C85.4809 1.59928 85.1626 1.3746 83.9643 1.99248C83.6647 2.16099 81.9421 3.7712 80.1447 5.56866L76.8868 8.84527L73.1983 5.21291C70.0153 2.06737 69.3225 1.46822 68.2178 0.943962C67.0944 0.419701 66.7387 0.34481 65.1659 0.307365C64.0799 0.269913 63.0876 0.363533 62.6382 0.513321ZM66.4391 4.46397C66.9259 4.66993 70.8204 8.45207 79.1711 16.784C85.7804 23.3934 91.4349 29.1228 91.6971 29.516C92.3337 30.4334 92.5022 32.0998 92.0528 33.0547C91.8843 33.3917 91.0792 34.3466 90.2554 35.1705L88.7575 36.6683L74.303 22.1951L59.8297 7.74058L61.3276 6.24271C62.1327 5.43759 63.0689 4.63248 63.3685 4.4827C64.1174 4.10823 65.5591 4.10823 66.4391 4.46397ZM87.3532 14.2938L84.8255 16.8215L82.2604 14.2563L79.6766 11.6725L82.2043 9.14484L84.7319 6.61717L87.297 9.18229L89.8809 11.7661L87.3532 14.2938ZM54.5684 8.48952C55.0927 8.73293 60.6348 14.1627 71.6442 25.1908C89.2817 42.8471 88.5141 42.0045 88.3456 43.8956C88.177 45.6369 86.8477 46.8913 85.0315 47.0224C84.2077 47.0786 83.777 47.0037 83.2153 46.7228C82.3166 46.2548 50.1684 14.0878 49.7378 13.2266C49.5693 12.8895 49.4382 12.2342 49.4382 11.7661C49.4382 9.05122 52.1531 7.30994 54.5684 8.48952ZM13.3581 49.6063C14.2193 50.0369 46.3863 82.1851 46.8544 83.0838C47.1352 83.6455 47.2101 84.0762 47.1539 84.9C47.0229 86.7162 45.7684 88.0455 44.0271 88.214C42.136 88.3826 42.9786 89.1502 25.3224 71.5127C13.7138 59.9229 8.86443 54.9799 8.6023 54.3995C7.4789 52.0965 9.20146 49.3067 11.7478 49.3067C12.3096 49.3067 13.021 49.4377 13.3581 49.6063ZM22.3828 74.2089L36.7999 88.626L35.302 90.1238C34.4781 90.9477 33.542 91.7528 33.2237 91.9026C32.456 92.2583 31.0705 92.2583 30.1905 91.9026C29.7037 91.6966 25.8092 87.9145 17.4585 79.5825C10.8491 72.9731 5.21336 67.2438 4.95123 66.8693C4.40825 66.1016 4.20229 64.8846 4.38952 63.8174C4.50186 63.2931 4.91378 62.7127 6.13081 61.4582C7.01081 60.5408 7.79719 59.7918 7.85337 59.7918C7.90954 59.7918 14.444 66.2701 22.3828 74.2089ZM14.4253 82.1664L16.953 84.694L14.4253 87.2217L11.8976 89.7494L9.33252 87.1843L6.74868 84.6004L9.22018 82.1289C10.587 80.7621 11.7478 79.6387 11.804 79.6387C11.8602 79.6387 13.0398 80.7808 14.4253 82.1664Z" fill="white"/>
<path d="M51.648 50.393C50.2624 50.5615 49.6633 52.5649 50.6931 53.6509C51.7041 54.6994 53.7075 54.1564 53.9697 52.7709C54.2692 51.2917 53.202 50.2058 51.648 50.393Z" fill="white"/>
</svg>
